<?xml version="1.0" standalone="no"?>
<!DOCTYPE svg PUBLIC "-//W3C//DTD SVG 20010904//EN"
 "http://www.w3.org/TR/2001/REC-SVG-20010904/DTD/svg10.dtd">
<svg version="1.0" xmlns="http://www.w3.org/2000/svg"
 width="1024.000000pt" height="1024.000000pt" viewBox="0 0 1024.000000 1024.000000"
 preserveAspectRatio="xMidYMid meet">

<g transform="translate(0.000000,1024.000000) scale(0.100000,-0.100000)"
fill="#000000" stroke="none">
<path d="M3445 10167 c-121 -58 -185 -194 -206 -442 -6 -66 -16 -130 -22 -143
-8 -16 -3 -99 17 -320 32 -346 41 -413 57 -423 18 -11 4 -154 -22 -231 -11
-35 -37 -97 -56 -138 -24 -49 -37 -92 -38 -122 -2 -46 -1 -47 24 -42 48 12 68
32 108 116 71 146 88 215 88 358 -1 69 -9 190 -18 270 -27 227 -33 534 -13
649 37 213 149 320 241 231 90 -87 141 -333 210 -1004 14 -137 29 -254 34
-260 5 -6 14 -76 20 -155 9 -123 8 -146 -4 -155 -19 -15 -42 -71 -50 -127 -9
-58 11 -107 58 -143 69 -53 84 -87 111 -258 14 -86 43 -239 65 -340 66 -306
111 -614 121 -836 9 -197 15 -285 26 -374 5 -41 3 -48 -11 -48 -15 0 -17 -7
-11 -52 4 -29 14 -100 22 -158 7 -58 17 -165 20 -237 5 -99 10 -130 19 -123 8
7 16 -19 28 -98 10 -59 20 -118 24 -132 6 -24 5 -24 -29 8 -39 37 -48 39 -49
15 0 -10 -7 0 -15 22 -27 72 -62 314 -89 610 -28 311 -37 387 -61 479 -17 66
-73 196 -84 196 -4 0 7 -35 25 -77 27 -63 39 -113 59 -257 38 -264 35 -277
-33 -138 -133 270 -211 387 -315 472 -57 47 -160 99 -172 87 -6 -5 31 -52 101
-132 l27 -30 -23 40 c-12 22 -34 52 -47 68 -31 32 -16 35 41 6 102 -53 229
-208 285 -350 35 -88 106 -319 137 -443 16 -65 24 -84 29 -70 8 18 8 18 16 -1
16 -37 10 -64 -21 -100 -17 -19 -35 -35 -39 -35 -4 0 -25 71 -46 157 l-39 157
-6 -54 c-3 -33 -6 -42 -7 -23 -4 76 -72 337 -94 358 -7 7 -8 4 -4 -10 8 -28
26 -229 26 -291 0 -27 -6 -58 -13 -69 -12 -16 -16 -8 -35 71 -21 83 -77 222
-87 213 -2 -3 7 -42 20 -87 52 -180 95 -388 95 -463 0 -78 -13 -121 -25 -84
-4 11 -41 98 -82 193 -41 96 -95 229 -119 295 -23 67 -43 119 -43 114 -1 -4 8
-49 20 -100 42 -188 59 -317 43 -317 -4 0 -13 8 -20 18 -12 15 -13 7 -14 -58
0 -57 -3 -71 -12 -62 -22 22 -28 12 -28 -48 0 -59 -13 -79 -28 -42 -4 10 -11
-13 -18 -63 -11 -79 -11 -80 -25 -50 -11 24 -14 109 -15 443 -1 227 -4 415 -7
418 -15 16 -28 -59 -52 -296 -33 -333 -65 -625 -74 -675 l-7 -40 -36 75 c-76
159 -100 231 -137 410 -16 81 -13 -7 4 -106 41 -232 135 -413 270 -520 11 -8
0 -5 -24 8 -25 13 -79 62 -125 113 -148 164 -303 315 -340 330 -45 19 -144 30
-182 21 -26 -7 -23 -9 36 -29 129 -44 210 -107 332 -260 71 -90 125 -177 142
-233 4 -12 -30 15 -81 64 -101 96 -187 157 -246 173 -36 10 -66 7 -197 -15
-204 -36 -250 -46 -250 -57 0 -5 7 -9 15 -9 20 0 19 -17 -2 -30 -30 -18 44 -1
115 27 88 34 223 43 287 19 62 -24 70 -40 14 -32 -56 8 -123 -9 -286 -75 -144
-57 -358 -157 -352 -163 3 -3 135 33 294 80 160 46 302 87 317 90 23 5 49 -7
143 -66 187 -118 289 -142 426 -104 79 22 126 66 179 164 24 45 55 91 69 102
26 19 26 19 42 -1 9 -11 26 -72 38 -138 38 -209 49 -258 50 -233 2 45 58 371
65 377 3 4 11 2 17 -4 8 -8 3 -69 -21 -223 -17 -116 -29 -217 -27 -224 7 -18
192 -40 273 -33 80 8 126 27 181 78 37 34 47 38 59 28 12 -10 14 -24 9 -55 -6
-42 -6 -42 30 -48 48 -9 145 29 145 56 0 16 -7 20 -30 20 -3 1 -18 -2 -33 -6
-25 -6 -28 -4 -23 12 4 10 -18 115 -48 233 -65 257 -144 639 -131 639 2 0 13
-30 26 -67 12 -38 34 -93 49 -123 32 -64 50 -142 50 -220 0 -30 22 -144 48
-252 44 -184 49 -198 70 -198 27 0 27 11 2 86 -28 81 -80 348 -80 409 l1 50
34 -70 c20 -38 33 -59 30 -45 -3 14 -23 97 -45 185 -41 170 -53 246 -70 443
-10 121 -45 258 -76 299 -11 15 -12 13 -3 -17 6 -19 19 -64 29 -100 21 -71 50
-339 50 -462 0 -74 -11 -106 -24 -71 -11 27 -36 308 -38 418 -1 100 -1 100 -7
28 -9 -105 -24 -112 -51 -23 -31 105 -50 199 -49 250 l0 45 15 -47 c8 -27 21
-48 28 -48 11 0 11 10 0 63 -13 64 -41 283 -47 372 -2 28 -5 -6 -7 -75 l-3
-125 -8 85 c-5 47 -21 155 -35 240 -20 115 -25 174 -21 230 3 41 3 68 0 60 -3
-8 -10 -26 -15 -40 l-10 -25 -10 25 c-5 14 -22 99 -38 190 -37 217 -108 594
-120 645 -12 51 -13 85 -1 85 5 0 12 -11 15 -25 4 -14 11 -25 17 -25 7 0 9 9
5 23 -4 12 -11 126 -16 252 -5 127 -15 293 -24 370 -8 77 -17 185 -21 240 -3
55 -8 117 -12 139 -9 64 14 33 31 -42 34 -151 58 -317 71 -502 8 -107 15 -197
15 -199 0 -2 9 -1 20 2 10 3 23 0 29 -7 19 -23 40 -166 44 -296 l4 -135 -13
90 c-15 98 -77 287 -88 264 -3 -8 -4 -2 -2 14 2 15 0 27 -4 27 -4 0 -13 35
-19 77 -6 42 -14 79 -16 82 -7 7 -6 -25 5 -104 5 -38 16 -126 25 -195 22 -187
70 -509 76 -515 3 -2 4 7 3 23 -2 15 -8 88 -14 162 -6 74 -16 166 -22 203 -11
78 -6 92 16 48 10 -19 20 -78 26 -154 5 -67 16 -179 25 -247 8 -68 16 -152 16
-185 l2 -60 10 53 c8 40 6 94 -7 215 -20 201 -19 221 4 88 11 -58 37 -168 59
-245 22 -78 50 -195 62 -261 19 -105 20 -137 13 -260 -4 -77 -7 -169 -7 -205
1 -62 42 -244 108 -480 34 -121 62 -273 76 -413 16 -168 63 -373 95 -413 14
-18 14 -17 12 11 -4 41 23 40 34 0 7 -31 8 -31 135 -53 87 -14 132 -27 144
-39 16 -16 119 -238 119 -255 0 -5 -7 -8 -15 -8 -9 0 -18 -7 -21 -15 -12 -31
-84 -9 -84 26 0 11 -5 17 -10 14 -6 -3 -10 -17 -10 -30 0 -13 -11 -53 -23 -89
l-24 -64 40 14 c22 8 50 14 64 14 13 0 26 7 29 15 5 12 10 11 33 -6 l26 -21 3
49 c2 26 7 52 11 56 6 6 81 -136 81 -155 0 -3 -13 -8 -29 -11 -34 -7 -46 -33
-32 -71 12 -31 37 -34 46 -5 13 41 40 14 102 -106 34 -66 62 -123 63 -127 0
-5 -23 -8 -50 -8 -46 0 -52 3 -62 28 -9 22 -12 24 -15 9 -3 -11 8 -29 28 -47
19 -16 30 -32 26 -36 -11 -11 -97 13 -130 37 -35 25 -53 19 -62 -20 -8 -36
-20 -40 -28 -10 -5 18 -8 19 -26 7 -18 -11 -23 -10 -36 10 -19 27 -42 28 -73
4 l-24 -18 67 -44 c93 -61 95 -63 83 -102 -10 -32 -12 -33 -60 -32 -27 1 -55
7 -61 13 -6 6 -18 11 -26 11 -12 0 -12 -3 -3 -12 18 -18 15 -25 -13 -32 -14
-4 -25 -10 -25 -14 0 -5 32 -23 70 -41 39 -17 70 -35 70 -39 -1 -10 -26 -42
-34 -42 -3 0 -6 7 -6 15 0 20 -10 19 -25 -2 -11 -14 -17 -15 -38 -6 -13 6 -46
15 -73 18 -62 9 -71 15 -49 31 16 12 14 14 -19 28 -41 17 -43 23 -18 42 15 12
7 13 -58 14 -46 0 -100 8 -138 20 -35 11 -89 22 -120 25 l-57 6 67 -19 c39
-10 94 -37 135 -64 38 -25 83 -53 101 -62 17 -9 32 -21 32 -26 0 -15 -61 -12
-116 6 -27 9 -104 19 -170 23 -105 7 -127 11 -166 34 -39 22 -78 64 -78 82 0
3 7 5 15 5 20 0 19 10 -2 27 -17 12 -15 16 20 47 42 38 49 61 15 53 -76 -19
-103 -19 -121 1 -24 27 -33 92 -17 123 13 24 13 24 -9 5 -16 -14 -21 -31 -21
-66 0 -80 -52 -103 -124 -54 -33 23 -45 25 -88 20 -48 -7 -50 -6 -45 14 5 20
3 21 -41 13 -51 -8 -112 -6 -121 3 -3 3 10 19 29 35 39 33 35 35 -34 14 -59
-18 -116 -20 -116 -3 0 6 9 22 21 34 l20 22 -63 -15 c-61 -14 -170 -14 -184 0
-4 4 2 17 14 30 l22 23 -82 3 c-45 1 -86 5 -91 8 -4 3 -1 14 9 24 17 19 16 19
-14 14 -18 -3 -45 -7 -62 -10 -35 -5 -48 9 -23 25 14 9 5 9 -37 3 -100 -15
-257 -6 -360 20 -52 14 -96 23 -98 22 -2 -2 14 -15 35 -29 20 -14 34 -26 29
-26 -5 0 -81 24 -170 54 -124 41 -171 52 -202 49 -35 -4 -44 -1 -58 18 -36 51
-14 140 66 277 98 168 151 221 287 290 100 50 75 46 -98 -15 -68 -24 -125 -42
-127 -41 -7 8 71 101 99 118 41 25 22 25 -45 0 -52 -19 -53 -21 -53 -57 0 -28
-12 -56 -44 -105 -46 -71 -55 -77 -86 -54 -26 19 -14 79 26 128 43 54 30 59
-15 6 -68 -79 -66 -128 7 -198 l50 -48 -40 -64 c-49 -78 -63 -117 -63 -180 0
-93 38 -129 207 -197 54 -22 168 -75 253 -118 85 -43 192 -91 238 -106 97 -33
242 -115 327 -186 33 -28 91 -67 129 -87 50 -26 102 -68 184 -148 136 -132
160 -169 167 -257 l6 -64 -24 50 c-16 34 -66 93 -158 185 -182 184 -241 232
-285 236 -30 2 -34 0 -29 -14 4 -9 31 -89 60 -177 l52 -161 228 -279 c125
-154 233 -293 240 -310 9 -20 10 -36 4 -48 -14 -25 -6 -33 81 -77 90 -45 110
-68 110 -126 0 -31 9 -53 39 -95 42 -59 64 -116 59 -150 -3 -20 -9 -17 -59 32
-51 49 -58 62 -80 138 -26 91 -29 96 -151 203 -95 85 -178 195 -583 781 -33
47 -61 82 -63 77 -2 -5 24 -100 57 -210 34 -110 61 -203 61 -205 0 -3 11 -5
23 -5 28 0 47 -35 47 -86 0 -30 3 -34 19 -29 29 9 61 -27 61 -70 0 -30 3 -35
23 -35 19 0 26 -8 35 -39 11 -33 15 -38 37 -33 22 4 26 0 31 -27 5 -24 11 -30
24 -26 17 5 56 -31 87 -81 11 -17 12 -16 12 13 1 44 13 47 57 14 73 -54 136
-126 132 -152 -5 -35 -68 -55 -108 -34 -33 17 -96 20 -105 5 -10 -15 -50 -12
-112 10 -31 11 -61 17 -67 13 -6 -3 -8 -3 -4 2 5 5 -25 29 -65 55 -81 52 -117
91 -117 126 0 12 -4 26 -10 29 -5 3 -10 -3 -10 -15 0 -12 -4 -18 -10 -15 -13
8 -13 95 0 95 6 0 10 7 10 16 0 11 -5 14 -16 10 -9 -3 -25 -6 -36 -6 -19 0
-20 -2 -6 -17 12 -13 17 -50 20 -141 3 -67 8 -125 11 -128 3 -3 15 -1 26 6 19
10 23 7 35 -22 9 -20 21 -33 33 -33 13 0 19 -9 21 -32 2 -18 5 -33 6 -33 2 0
20 7 39 15 49 20 53 19 66 -15 10 -30 11 -31 35 -15 24 16 27 16 50 -2 13 -10
42 -25 65 -33 22 -7 41 -16 41 -20 0 -24 -147 -148 -188 -159 -30 -9 -30 -9
-20 15 17 38 -5 54 -27 20 -10 -14 -22 -26 -29 -26 -18 0 -108 48 -120 65 -9
13 -17 14 -44 4 -36 -12 -41 -25 -13 -34 10 -3 21 -15 24 -25 4 -16 14 -20 49
-21 42 0 42 0 21 -16 -13 -8 -23 -21 -23 -28 0 -7 48 -57 106 -110 101 -95
105 -100 99 -132 -7 -41 1 -42 74 -8 30 14 75 30 99 36 45 10 162 2 162 -10 0
-4 -33 -16 -72 -26 -97 -25 -128 -38 -157 -69 -35 -37 -115 -53 -198 -39 -36
7 -71 9 -78 7 -11 -5 -65 -93 -65 -108 0 -3 21 -6 48 -6 99 0 212 20 335 59
150 48 299 70 357 52 56 -17 58 -37 8 -88 -23 -23 -44 -40 -47 -38 -2 3 1 11
7 17 7 7 12 22 12 35 0 29 -31 38 -129 36 -69 -1 -81 -5 -180 -56 -128 -66
-221 -96 -321 -103 -82 -6 -145 8 -163 38 -9 13 -4 22 20 46 18 16 35 42 39
57 11 45 -13 167 -52 268 -100 255 -96 243 -97 367 0 63 6 150 12 192 15 92
11 116 -85 532 -69 301 -86 349 -122 354 -33 5 -51 -14 -87 -93 l-32 -70 -21
48 c-43 98 -42 79 23 -383 l43 -305 58 -119 c52 -106 59 -126 61 -190 3 -60 1
-67 -8 -46 -106 229 -203 393 -118 198 23 -51 52 -122 66 -158 14 -36 32 -81
40 -101 8 -20 13 -45 11 -55 -3 -14 -18 2 -58 60 -88 126 -90 129 -90 164 0
18 -4 31 -8 28 -5 -3 -32 36 -62 87 -29 51 -54 93 -55 95 -8 10 -105 -51 -110
-69 -5 -16 -12 -19 -28 -14 -199 59 -297 77 -448 82 l-157 6 -43 101 c-23 55
-81 182 -127 281 -103 221 -104 223 -90 227 15 5 -151 249 -242 355 -39 46
-107 114 -153 153 -85 73 -207 143 -232 133 -31 -11 -13 -42 57 -96 160 -123
375 -371 470 -544 33 -60 43 -72 54 -62 18 14 14 19 49 -71 25 -66 128 -296
232 -520 43 -92 133 -297 133 -303 0 -10 -171 62 -196 82 -14 11 -96 85 -182
165 -167 155 -244 218 -318 261 -67 40 -64 24 4 -18 66 -41 242 -205 376 -351
l89 -97 -26 -27 c-14 -15 -49 -77 -78 -137 -55 -117 -122 -228 -157 -259 -22
-19 -22 -18 -89 45 -88 83 -202 168 -288 215 -63 35 -453 169 -463 159 -3 -2
6 -9 19 -14 96 -37 341 -163 419 -216 169 -113 353 -293 446 -437 24 -36 44
-69 44 -72 0 -3 -28 17 -63 45 -34 28 -112 75 -174 106 l-111 55 -79 -10 -78
-9 60 -2 c44 -1 74 -9 112 -29 85 -44 224 -147 309 -228 73 -69 75 -73 34 -49
-225 130 -368 174 -570 174 -97 1 -111 -2 -185 -33 -191 -81 -414 -180 -412
-183 2 -1 39 12 83 29 148 57 359 119 438 128 81 10 180 1 246 -21 57 -19 53
-24 -20 -26 -86 -2 -186 -26 -266 -64 -67 -31 -189 -117 -180 -126 3 -3 22 8
43 25 21 16 66 44 101 61 l62 31 133 -20 c204 -31 335 -58 415 -87 l73 -26
-56 -22 -56 -23 -52 29 c-59 33 -140 39 -204 15 -67 -24 -217 -46 -316 -46
-53 0 -98 -4 -102 -9 -3 -6 66 -9 179 -8 101 1 188 -1 192 -6 21 -21 -55 -199
-143 -334 -8 -13 -13 -23 -10 -23 3 0 22 28 43 62 20 35 57 91 81 126 24 35
53 81 64 104 18 35 23 39 47 33 33 -8 72 -32 72 -44 0 -5 -15 -23 -32 -39
-119 -106 -145 -133 -194 -198 -30 -40 -82 -119 -115 -176 -34 -57 -74 -125
-90 -151 -61 -103 -24 -60 72 82 100 148 257 347 266 337 3 -3 -5 -19 -17 -36
-12 -16 -20 -36 -18 -42 2 -6 15 6 28 28 27 43 118 144 131 144 5 0 38 -37 75
-83 l67 -82 -42 -3 c-29 -2 -41 -8 -41 -19 0 -10 -6 -13 -17 -9 -10 4 -41 -10
-86 -39 -67 -45 -70 -49 -119 -153 -86 -185 -79 -161 -204 -640 -30 -118 -54
-216 -51 -218 2 -2 12 26 22 63 26 98 112 369 122 388 5 9 27 27 49 40 21 13
57 47 79 76 71 93 68 92 246 79 85 -6 168 -13 184 -15 33 -5 -20 13 -165 56
-80 23 -102 26 -143 19 -66 -13 -75 -19 -161 -112 l-77 -83 25 65 c13 36 57
133 97 215 71 143 76 151 119 173 25 12 64 23 85 25 l40 2 45 -86 c66 -127 76
-138 143 -170 81 -38 167 -40 217 -6 50 33 52 51 4 43 -103 -16 -132 -18 -153
-7 -11 7 -21 18 -21 25 0 8 -8 16 -18 18 -16 5 -39 32 -125 148 -18 24 -18 24
-1 -5 103 -174 107 -218 5 -60 -33 51 -68 98 -78 104 -14 8 -8 10 32 11 47 0
52 -3 75 -37 14 -20 40 -54 58 -76 18 -22 36 -45 40 -53 7 -12 14 -12 41 -3
19 7 42 20 51 29 10 10 26 23 36 29 17 10 15 15 -31 58 l-50 46 39 -7 c60 -11
109 -30 113 -43 2 -6 -5 -21 -16 -32 -23 -23 -20 -27 8 -9 14 9 39 6 113 -11
119 -27 226 -31 298 -10 52 15 53 17 30 29 -13 7 -60 15 -104 17 -75 5 -84 3
-118 -21 -21 -14 -38 -21 -38 -16 0 12 77 56 113 64 23 6 26 9 17 25 -5 11
-37 36 -71 56 -33 21 -58 39 -56 42 3 2 22 1 43 -3 25 -5 56 -24 96 -60 73
-68 99 -71 128 -14 24 47 64 59 125 37 22 -8 49 -18 60 -21 l20 -8 -20 17
c-50 41 -101 58 -190 64 l-90 6 42 28 c40 28 44 28 94 18 57 -13 137 -50 186
-87 34 -26 43 -29 43 -15 0 23 -117 91 -208 122 -79 27 -113 33 -185 33 -85 1
-87 2 -55 15 49 20 210 9 265 -18 47 -23 53 -25 53 -12 0 18 -54 43 -143 67
-83 22 -77 25 16 8 29 -5 34 -3 45 21 7 15 11 29 10 30 -2 1 -27 7 -57 12 -39
8 -70 7 -112 -2 -33 -6 -59 -8 -59 -5 0 4 23 18 52 30 56 24 68 24 245 -3 71
-11 80 -11 70 2 -17 21 -123 69 -169 76 -22 4 -37 9 -34 12 7 7 117 -17 151
-34 17 -9 53 -32 80 -53 61 -45 145 -95 145 -85 0 4 -43 52 -96 105 l-96 98
40 7 c55 9 73 -5 144 -110 33 -49 61 -91 62 -92 1 -1 0 29 -2 68 -5 79 8 108
61 135 l32 17 -23 -25 c-12 -14 -27 -40 -32 -58 -9 -33 -3 -150 9 -150 3 0 14
20 24 44 17 42 96 158 116 170 5 3 -10 -23 -34 -59 -40 -59 -95 -200 -95 -241
0 -40 29 2 67 96 23 57 49 110 57 119 9 9 6 -3 -7 -30 -17 -34 -22 -61 -22
-121 1 -111 21 -122 28 -16 8 120 22 146 23 44 1 -83 14 -126 37 -126 8 0 12
25 12 83 0 60 5 95 20 127 18 43 93 170 100 170 2 0 -10 -32 -27 -71 -28 -66
-51 -209 -34 -209 4 0 16 19 26 43 l20 42 0 -35 c0 -19 -5 -52 -11 -73 -6 -22
-8 -41 -5 -44 9 -10 63 85 92 164 23 62 30 72 32 51 2 -15 -2 -53 -8 -85 -7
-32 -13 -67 -14 -77 0 -11 -11 -31 -24 -44 -12 -14 -20 -27 -18 -30 11 -11 95
41 136 84 35 37 38 43 15 27 -16 -11 -41 -26 -55 -32 -21 -10 -20 -8 5 11 74
56 130 149 179 296 17 49 36 70 36 38 0 -26 -61 -199 -92 -260 -35 -70 -106
-148 -154 -171 l-36 -17 39 -36 c21 -20 43 -46 50 -57 6 -11 4 1 -5 26 l-15
45 63 77 c34 42 66 74 70 72 11 -7 40 22 40 39 0 32 153 146 197 146 28 0 29
10 3 43 -22 27 -25 37 -12 37 7 0 100 -88 170 -161 7 -8 21 -21 30 -30 44 -43
63 -69 57 -79 -13 -21 -32 -8 -110 75 l-80 86 -55 -30 c-63 -35 -62 -37 5 -14
l49 16 63 -69 c35 -38 74 -91 88 -119 13 -27 36 -63 50 -80 35 -39 16 -44 -46
-12 -56 30 -61 22 -24 -38 13 -22 25 -48 25 -57 0 -26 -44 -23 -107 6 l-51 24
9 -31 c10 -36 12 -117 3 -117 -4 0 -29 16 -55 35 -27 19 -49 33 -49 31 0 -2 7
-23 15 -46 25 -71 16 -78 -38 -30 -35 30 -54 39 -42 19 9 -13 -3 -79 -14 -79
-5 0 -19 25 -31 55 -12 30 -25 55 -28 55 -3 0 -13 -7 -23 -16 -24 -21 -95 -34
-193 -35 -74 -1 -80 1 -110 30 -37 36 -54 41 -32 9 24 -33 21 -36 -36 -36 -29
1 -93 -7 -142 -17 -82 -17 -90 -21 -108 -52 -11 -18 -24 -30 -29 -27 -17 10
-9 -85 12 -142 24 -64 83 -129 125 -138 16 -3 178 14 361 38 l332 44 63 55
c99 86 152 114 239 126 87 12 140 2 163 -31 15 -20 15 -20 58 15 49 40 126 76
166 78 26 1 25 2 -6 12 -41 13 -146 -4 -172 -28 -12 -11 -20 -13 -25 -6 -14
24 -156 6 -225 -28 -24 -12 -24 -12 -5 5 51 42 129 68 219 72 59 3 84 8 73 13
-20 12 -283 38 -311 31 -12 -3 -18 -2 -15 1 3 4 50 16 105 27 89 19 110 20
203 10 57 -6 122 -17 145 -25 74 -26 54 4 -34 49 -46 23 -110 43 -165 49 -18
3 -10 5 20 5 56 2 127 -15 199 -46 72 -32 79 -26 16 13 -89 57 -154 77 -234
73 -56 -3 -72 -8 -86 -26 -26 -32 -34 -27 -13 8 11 19 36 37 70 52 29 12 50
25 47 30 -8 13 -105 9 -147 -6 -49 -18 -46 2 5 27 42 21 195 40 244 31 l33 -6
-20 51 c-26 71 -25 153 5 216 39 84 145 165 236 181 28 4 20 -2 -37 -30 -221
-111 -246 -339 -55 -504 37 -31 83 -73 102 -93 l35 -37 2 66 c4 81 29 136 90
197 64 65 97 79 44 19 -49 -55 -86 -129 -95 -191 l-6 -42 37 39 c21 22 51 42
68 45 l30 6 -32 -15 c-32 -15 -55 -57 -34 -64 20 -7 155 -98 221 -150 36 -28
66 -47 68 -42 2 6 -17 50 -41 100 -25 49 -43 90 -40 90 14 0 175 -125 212
-165 32 -35 41 -41 36 -23 -55 184 -233 352 -379 359 -12 1 8 7 44 15 62 14
66 13 110 -9 86 -44 201 -216 250 -374 13 -40 27 -73 31 -73 11 0 11 41 -1
100 -4 25 -6 47 -4 49 9 9 54 -110 65 -173 9 -52 16 -70 30 -73 26 -7 46 -80
68 -240 l17 -131 -62 -17 c-58 -16 -284 -118 -284 -129 0 -3 29 9 64 25 76 35
153 46 214 29 l44 -11 -41 -27 c-22 -14 -39 -28 -37 -29 2 -2 24 2 49 9 53 14
67 7 47 -25 -25 -40 -62 -118 -58 -123 3 -2 18 16 36 41 39 55 115 100 198
115 77 15 136 7 201 -25 26 -14 49 -25 51 -25 1 0 -12 25 -29 55 -17 30 -29
55 -27 55 3 0 39 -18 82 -40 80 -42 149 -53 174 -28 20 20 14 67 -13 93 -32
33 -63 33 -67 0 l-3 -25 -63 30 c-78 37 -86 54 -44 92 44 38 113 39 163 3 37
-28 99 -101 99 -118 0 -6 3 -8 6 -4 21 21 -115 191 -163 203 -30 8 -29 12 10
58 l33 39 63 -33 c68 -36 182 -137 243 -213 21 -27 38 -47 38 -44 0 22 -146
254 -188 299 -14 15 -23 30 -20 33 3 4 40 -26 82 -64 42 -39 108 -92 148 -117
40 -26 100 -64 132 -85 33 -22 64 -39 70 -39 5 0 -22 33 -60 73 -62 64 -114
128 -114 139 0 10 143 -12 174 -27 19 -9 60 -45 90 -79 81 -93 176 -210 172
-213 -2 -2 -27 8 -57 22 -47 21 -56 23 -68 10 -12 -11 -12 -21 -4 -49 13 -42
10 -46 -36 -46 -31 0 -46 11 -140 105 -58 58 -106 105 -106 105 -7 0 36 -193
47 -209 16 -26 48 -27 55 -2 5 18 9 17 51 -14 97 -68 181 -97 221 -76 23 13
27 41 10 73 -6 11 -8 22 -5 25 3 3 38 -6 77 -20 l72 -26 -41 42 c-22 23 -46
55 -51 70 -11 29 -15 87 -6 87 3 0 32 -22 66 -49 75 -60 200 -125 293 -151 38
-11 71 -18 73 -16 2 2 -20 18 -49 36 -101 62 -238 172 -286 228 -26 31 -68 78
-95 103 l-47 47 35 -8 c48 -11 89 -37 197 -123 94 -75 136 -102 144 -94 3 2
-7 19 -22 37 l-28 32 62 -31 c34 -17 65 -31 70 -31 5 0 9 22 11 50 2 45 -1 52
-39 90 -22 22 -36 40 -31 40 24 0 166 -108 220 -167 61 -66 75 -69 45 -12 -8
17 -14 33 -11 35 2 3 69 -57 147 -133 79 -76 139 -131 134 -122 -39 65 -196
281 -227 312 -35 35 -43 38 -73 32 -26 -4 -42 -1 -64 15 -52 37 -114 60 -165
60 -48 0 -195 46 -195 62 0 3 25 16 55 27 l56 21 112 -34 c62 -19 188 -46 280
-60 94 -14 190 -35 220 -48 63 -26 168 -98 196 -134 12 -15 21 -23 21 -20 0
10 -85 120 -116 151 -61 61 -143 106 -256 139 l-83 25 52 0 c29 1 76 -8 105
-19 133 -50 393 -212 577 -361 33 -27 61 -48 61 -46 0 1 -14 38 -30 81 -35 90
-55 121 -119 190 -38 41 -41 46 -16 30 64 -39 106 -78 158 -147 67 -88 81
-101 138 -126 35 -16 50 -30 64 -60 23 -52 47 -73 77 -69 35 5 27 50 -22 114
l-41 55 61 -31 c34 -17 64 -29 67 -26 3 3 -23 35 -58 71 -60 61 -80 73 -328
195 -145 72 -261 133 -258 136 8 8 202 -57 392 -131 88 -35 180 -69 205 -76
33 -10 58 -28 95 -69 116 -128 220 -211 245 -195 34 21 -20 105 -139 217 -74
69 -79 76 -36 48 28 -19 75 -52 105 -75 30 -23 87 -63 125 -90 l70 -48 -45 47
c-71 75 -214 187 -345 271 -66 42 -127 83 -135 92 -13 14 -12 14 10 8 41 -12
127 -63 271 -161 168 -114 182 -121 257 -133 54 -9 77 -21 211 -115 83 -58
151 -103 151 -101 0 4 -105 130 -146 174 -7 7 -36 22 -66 33 -37 13 -43 18
-19 14 18 -3 64 -6 100 -6 63 0 73 -3 152 -50 46 -28 126 -82 177 -120 74 -56
101 -70 129 -70 29 0 238 78 230 86 -2 2 -32 -1 -67 -6 -36 -5 -86 -10 -113
-10 l-48 0 16 30 c26 49 -16 95 -53 58 -9 -9 -12 -1 -12 39 0 86 -44 91 -74 8
l-15 -40 0 42 c-1 29 -8 50 -25 70 -21 25 -26 26 -50 15 -26 -12 -27 -11 -60
61 -18 41 -39 91 -46 112 -15 46 -25 38 159 149 72 44 129 81 127 83 -4 4
-157 -62 -246 -107 -33 -17 -65 -28 -70 -25 -5 3 -19 32 -31 65 -12 34 -26 57
-32 53 -35 -21 -152 -115 -206 -165 -35 -32 -66 -56 -68 -54 -11 11 30 78 59
96 39 23 23 26 -29 5 -19 -8 -40 -15 -45 -15 -15 0 27 48 88 101 30 27 52 49
48 49 -4 0 -47 -23 -96 -51 -49 -28 -92 -48 -96 -44 -10 10 133 143 213 197
67 46 74 48 173 59 89 9 112 9 175 -7 99 -24 141 -43 215 -99 35 -26 65 -45
68 -42 6 6 -179 138 -233 166 -56 28 -112 35 -203 23 -41 -5 -76 -8 -78 -7 -2
2 30 26 71 54 71 48 126 98 62 57 -17 -11 -66 -43 -110 -72 -67 -44 -91 -54
-152 -63 -39 -6 -83 -15 -97 -21 -16 -6 -26 -6 -26 0 0 17 153 141 238 193 45
27 82 52 82 54 0 9 -122 -65 -252 -154 -76 -51 -138 -91 -138 -88 0 6 68 138
108 210 27 48 32 51 108 77 46 16 128 32 194 40 l115 13 -75 8 c-178 19 -274
6 -430 -57 -33 -14 -60 -22 -60 -20 0 3 9 22 20 43 42 84 173 155 314 171 l88
10 47 -42 c26 -24 74 -63 107 -88 32 -25 105 -82 161 -128 57 -45 103 -80 103
-76 0 3 -43 47 -95 96 -52 49 -95 96 -95 104 0 8 -6 14 -13 14 -16 0 -137 121
-137 138 0 7 14 13 33 14 23 1 19 3 -17 7 -27 3 -51 11 -53 16 -1 6 28 27 66
47 73 40 191 132 191 149 0 6 -22 -9 -49 -33 -55 -49 -101 -67 -199 -75 -66
-5 -68 -5 -177 51 -149 77 -151 79 -132 107 31 43 184 172 284 239 176 117
361 195 529 223 43 7 74 16 69 19 -18 9 -178 -23 -283 -58 -266 -87 -480 -227
-710 -465 -42 -43 -77 -77 -79 -75 -4 4 53 155 65 172 7 11 99 66 297 180 145
82 225 133 225 140 0 4 -10 0 -22 -8 -102 -65 -455 -244 -465 -235 -5 6 77
240 88 252 5 6 45 20 87 31 l77 22 -77 -6 c-43 -2 -78 -2 -78 1 0 3 5 18 11
34 19 51 109 356 106 360 -2 2 -30 -70 -62 -159 -91 -256 -85 -245 -142 -253
-26 -4 -55 -9 -64 -11 -13 -3 -19 12 -33 78 l-18 83 65 150 c124 291 279 614
291 609 7 -3 35 25 63 64 125 171 272 313 431 419 82 54 101 83 59 91 -47 9
-232 -105 -346 -213 -105 -100 -253 -283 -246 -305 3 -10 -27 -83 -76 -181
-74 -151 -172 -374 -230 -527 -13 -34 -27 -62 -30 -62 -4 0 -9 10 -12 22 -4
12 -9 20 -12 16 -3 -3 -1 -18 5 -34 10 -25 6 -43 -31 -137 -35 -88 -48 -111
-68 -119 -15 -6 -46 -19 -70 -29 -24 -11 -45 -18 -47 -16 -2 2 25 62 60 133
61 123 133 240 192 312 15 18 25 35 22 37 -6 7 -100 -111 -165 -208 -30 -45
-81 -136 -114 -202 -46 -93 -75 -137 -129 -195 -76 -82 -83 -82 -96 -6 -4 27
-3 41 5 44 8 3 6 8 -5 17 -14 10 -54 106 -90 217 -4 12 36 61 135 166 160 169
190 190 386 258 65 23 121 46 123 52 5 16 -250 -72 -340 -117 -64 -31 -82 -47
-145 -125 -40 -49 -96 -114 -126 -144 l-55 -55 -16 32 c-9 17 -21 31 -27 31
-7 0 -5 -10 5 -25 23 -34 21 -41 -23 -91 -48 -55 -112 -176 -141 -269 -13 -38
-26 -74 -30 -79 -8 -8 -31 61 -59 169 -41 162 -38 562 5 714 16 55 12 82 -5
40 -25 -60 -58 -284 -67 -461 -8 -154 3 -229 61 -405 25 -75 45 -143 45 -151
0 -23 -43 -153 -50 -150 -3 2 -25 25 -50 51 -33 36 -40 51 -32 59 22 22 12 31
-13 14 -25 -16 -28 -16 -63 5 -61 36 -82 60 -82 92 0 18 -4 27 -12 24 -7 -2
-13 -14 -12 -26 0 -11 -2 -21 -5 -21 -10 0 -79 68 -107 105 -14 19 -30 32 -35
29 -5 -3 2 -20 15 -37 13 -18 41 -58 63 -89 21 -31 56 -76 77 -99 51 -54 44
-66 -68 -104 l-88 -30 -29 35 c-16 19 -29 39 -29 44 0 6 29 39 66 73 36 35 63
63 60 63 -3 0 -42 -27 -86 -61 -49 -37 -87 -58 -96 -55 -12 5 -9 11 13 31 32
27 16 34 -23 9 -23 -16 -26 -16 -48 5 -12 11 -32 21 -44 21 l-21 0 21 48 c11
26 35 65 53 87 99 119 100 122 42 66 l-56 -54 39 111 c22 62 51 133 64 160 13
26 31 75 40 108 16 62 46 97 132 155 22 14 44 36 51 50 64 130 125 279 143
348 29 113 42 136 99 172 52 32 82 64 179 201 34 47 85 105 112 128 72 60 91
103 101 227 7 91 12 110 43 166 30 53 36 74 36 124 0 113 -52 236 -141 333
-28 30 -49 51 -47 45 2 -5 23 -48 46 -95 43 -87 62 -160 62 -237 0 -55 -15
-48 -24 10 -13 82 -109 251 -181 317 l-28 25 7 -44 c10 -65 -3 -157 -28 -194
-15 -21 -54 -49 -118 -82 -53 -28 -105 -58 -116 -68 -11 -10 -151 -280 -312
-600 -161 -320 -296 -586 -300 -590 -11 -12 -53 149 -54 208 -1 48 6 62 232
428 l234 378 64 181 c36 99 63 185 62 190 -2 6 -116 -113 -253 -263 -418 -458
-397 -441 -489 -422 l-40 9 85 66 c149 117 245 230 398 471 102 161 124 197
118 197 -3 0 -61 -64 -130 -142 -204 -235 -385 -398 -481 -434 -22 -9 1 38
118 230 60 99 106 199 106 230 0 7 18 21 40 31 52 24 90 62 90 91 0 42 -21 37
-72 -20 -28 -31 -52 -55 -54 -53 -2 2 3 26 11 54 12 40 38 77 121 172 59 67
125 132 148 146 24 14 78 30 131 39 50 9 132 28 183 42 l92 26 104 -32 103
-32 104 26 c57 15 114 33 126 41 36 24 46 77 40 206 l-5 117 54 47 c32 27 54
54 54 66 0 29 -42 67 -83 74 -29 6 -36 13 -46 43 -17 56 -68 130 -104 152 -28
18 -50 20 -182 19 -172 -1 -233 -13 -110 -22 139 -10 217 -42 343 -142 56 -44
56 -44 43 -64 -8 -12 -21 -11 -90 3 -45 9 -109 16 -144 16 -62 0 -225 -16
-262 -26 -15 -3 -11 3 14 25 34 30 106 53 206 67 43 6 46 8 25 15 -49 14 -107
8 -259 -26 -161 -36 -247 -70 -321 -126 -25 -19 -61 -45 -80 -59 l-35 -24 21
25 c12 13 40 53 64 88 66 98 225 247 344 320 20 13 35 25 33 27 -7 7 -315
-139 -399 -189 -42 -25 -79 -43 -82 -39 -11 10 -6 35 11 54 16 18 15 21 -21
57 l-37 38 17 216 c13 166 15 239 7 319 l-10 103 -1 -105 c-2 -112 -13 -170
-38 -194 -13 -14 -13 -19 1 -45 11 -22 15 -62 15 -157 l0 -126 -35 6 c-31 6
-35 4 -41 -19 -6 -26 -3 -55 11 -87 5 -12 -2 -26 -20 -44 l-26 -26 -24 22
c-30 28 -49 83 -41 115 3 12 22 42 41 65 29 35 33 44 23 60 -9 14 -9 25 0 45
7 14 12 45 12 68 l0 42 -19 -40 c-16 -35 -71 -99 -71 -83 0 4 16 57 35 118 19
61 35 122 35 135 0 14 13 39 29 58 18 20 36 58 46 97 9 36 27 97 40 135 13 39
28 106 34 150 6 44 13 96 17 115 6 31 5 33 -8 22 -13 -10 -20 -3 -51 45 -19
32 -46 68 -59 80 l-24 23 29 -88 c19 -54 32 -116 35 -164 4 -72 3 -78 -14 -78
-15 0 -24 -17 -43 -82 -13 -46 -34 -104 -47 -129 -17 -34 -25 -76 -34 -170
-15 -162 -25 -214 -53 -268 -32 -63 -49 -65 -31 -4 46 149 56 225 59 445 3
211 4 219 31 278 26 59 37 70 49 50 12 -20 25 -9 25 20 0 36 -25 100 -39 100
-5 0 -28 -37 -50 -82 -41 -84 -46 -84 -54 -10 -6 53 -10 57 -36 42 -27 -14
-26 -4 4 45 34 55 31 63 -10 26 -20 -17 -38 -31 -41 -31 -9 0 7 139 22 199 8
30 13 56 11 58 -2 2 -16 -15 -31 -37 -39 -59 -97 -121 -107 -114 -15 9 -10 93
6 124 19 37 7 39 -25 5 -33 -35 -40 -32 -40 19 0 23 -5 57 -11 75 -8 24 -8 35
1 46 9 11 9 18 -3 30 -14 13 -17 11 -36 -21 -24 -40 -36 -38 -46 7 -4 19 -15
33 -26 36 -22 6 -32 49 -26 113 3 42 4 41 5 -12 1 -32 5 -58 8 -58 3 0 31 23
62 51 83 76 68 84 428 -230 160 -140 178 -152 64 -41 -162 157 -323 300 -368
327 -24 14 -75 34 -115 44 -39 11 -76 24 -81 29 -19 19 -34 10 -40 -25 -12
-61 -23 -38 -13 25 5 33 14 60 19 60 5 0 20 -7 33 -16 40 -26 29 1 -24 60 -37
41 -52 66 -60 105 -18 84 -17 85 47 105 137 42 200 83 333 216 162 159 184
200 183 320 -3 210 -102 372 -313 511 -137 90 -249 108 -431 68 -52 -11 -149
-24 -215 -28 -112 -7 -126 -10 -215 -50 -160 -73 -201 -79 -565 -85 -322 -5
-378 -10 -747 -61 -97 -14 -203 -25 -235 -25 -48 0 -211 24 -219 33 -1 1 -6
35 -10 76 -5 55 -4 72 5 67 18 -12 13 49 -24 287 -19 122 -46 326 -60 452 -43
389 -67 494 -142 638 -97 184 -289 280 -428 214z m298 -135 c62 -42 111 -149
122 -271 l6 -56 -66 135 c-39 80 -81 150 -102 173 -36 36 -36 37 -13 37 14 0
37 -8 53 -18z m12 -195 c27 -85 30 -101 16 -93 -10 7 -61 163 -61 187 0 26 19
-12 45 -94z m194 -327 c36 -186 48 -300 33 -300 -27 0 -82 271 -82 398 1 115
11 94 49 -98z m-54 -325 c9 -44 32 -210 51 -370 40 -340 45 -495 14 -495 -12
0 -18 44 -40 285 -11 121 -29 306 -40 410 -30 284 -24 356 15 170z m1664 -896
c14 -14 35 -19 72 -19 29 0 50 -2 47 -5 -8 -8 -81 -9 -108 0 -24 7 -24 7 -7
-12 18 -21 14 -33 -14 -33 -10 0 -23 15 -33 40 -19 48 -20 72 -4 88 10 10 14
7 20 -14 4 -15 16 -35 27 -45z m70 60 c26 -9 44 -29 26 -29 -10 0 -65 30 -65
35 0 7 3 6 39 -6z m-239 -43 c0 -13 -8 -34 -18 -46 -18 -22 -18 -22 -57 -4
l-40 18 38 4 c29 2 41 9 49 28 14 31 28 31 28 0z m75 -54 c-3 -7 2 -20 10 -28
21 -21 19 -32 -7 -36 -13 -2 -24 -11 -26 -20 -2 -13 2 -15 19 -11 19 5 21 3
16 -17 -3 -13 -1 -30 5 -37 7 -9 7 -13 -1 -13 -18 0 -13 -25 9 -45 23 -21 25
-33 7 -54 -11 -13 -11 -22 4 -51 10 -19 18 -28 19 -18 0 30 38 8 59 -35 26
-51 13 -71 -38 -61 -28 6 -32 10 -28 30 2 13 2 24 0 24 -9 0 -59 -36 -66 -47
-12 -19 -41 -16 -70 7 -28 23 -48 25 -64 9 -15 -15 -33 -3 -33 23 0 22 45 88
60 88 5 0 7 -11 4 -24 -2 -14 0 -28 6 -31 6 -4 10 10 10 34 0 39 -2 41 -29 41
-24 0 -34 -8 -55 -44 -41 -69 -104 -144 -135 -161 -37 -19 -48 -6 -31 36 16
38 4 51 -19 21 -19 -26 -31 -20 -31 17 1 31 16 51 50 69 29 15 83 64 158 145
56 60 70 70 52 38 -15 -29 -12 -35 8 -20 9 7 7 2 -5 -12 -13 -14 -23 -31 -23
-37 0 -7 -4 -12 -10 -12 -5 0 -10 -5 -10 -10 0 -7 7 -7 20 0 11 6 18 15 15 20
-3 5 0 12 6 16 8 4 9 3 5 -5 -4 -6 0 -14 10 -18 20 -7 34 14 50 74 8 31 8 44
0 47 -6 3 -1 8 12 11 28 9 29 25 1 25 -20 0 -20 1 -2 30 14 24 15 33 5 39 -9
5 -8 12 4 27 15 18 15 18 9 -3 -9 -33 2 -28 21 9 l17 33 9 -25 c5 -13 6 -30 3
-38z m-262 38 c15 0 27 -5 27 -11 0 -13 -80 -2 -95 13 -7 7 -2 9 15 4 14 -3
37 -6 53 -6z m-68 -69 c-45 -11 -97 -40 -120 -67 -25 -28 -85 -38 -85 -13 0 7
10 9 25 6 22 -4 28 1 39 28 19 44 40 55 111 54 47 -1 53 -3 30 -8z m686 -22
c19 -6 41 -13 49 -16 8 -4 23 -5 33 -4 9 1 17 -3 17 -8 0 -6 -6 -11 -12 -11
-7 0 -2 -9 12 -20 20 -16 22 -22 11 -29 -18 -12 -37 -5 -81 29 -54 41 -75 50
-127 51 -43 1 -45 2 -18 9 45 11 78 11 116 -1z m-537 -5 c9 -3 16 -10 16 -15
0 -14 -26 -10 -40 6 -13 16 -3 20 24 9z m-1190 -79 c4 -25 3 -34 -2 -25 -5 8
-12 35 -15 60 -7 54 7 24 17 -35z m1571 47 c-2 -3 -12 -1 -22 2 -15 6 -15 9
-3 16 13 8 35 -8 25 -18z m-435 7 c0 -7 -11 -22 -26 -35 -15 -14 -20 -24 -12
-25 7 -1 2 -5 -12 -9 l-25 -8 27 -1 c15 -1 30 4 33 9 3 6 1 10 -5 10 -6 0 -8
5 -5 10 7 11 45 14 45 3 0 -8 -61 -63 -71 -63 -4 0 -19 4 -33 10 -14 5 -26 6
-26 1 0 -14 68 -23 89 -11 33 17 36 11 7 -19 -27 -28 -27 -28 -83 -15 -34 8
-67 23 -84 40 -22 21 -32 25 -41 16 -9 -9 -7 -16 7 -32 15 -16 15 -20 3 -20
-8 0 -25 -9 -38 -20 -25 -22 -36 -25 -44 -11 -3 5 5 16 19 25 24 16 25 46 1
46 -6 0 -18 5 -26 10 -13 9 -13 11 0 20 8 5 28 10 44 10 17 0 42 12 63 30 35
31 53 36 69 20 11 -11 84 -2 84 11 0 5 9 9 20 9 11 0 20 -5 20 -11z m-680 -20
c140 -1 141 -1 151 -26 5 -13 9 -26 9 -27 0 -2 -17 2 -37 9 -21 7 -79 16 -129
20 -97 8 -119 0 -92 -33 7 -9 -6 -3 -29 13 -41 29 -60 64 -28 51 8 -3 78 -6
155 -7z m2011 -7 c-16 -30 -46 -52 -82 -58 -19 -4 -31 -4 -28 0 6 6 108 72
117 75 1 1 -2 -7 -7 -17z m-1020 -40 c6 -20 24 -53 40 -72 18 -22 27 -28 23
-15 -4 11 -12 26 -17 33 -5 7 -7 15 -4 18 3 4 34 -17 67 -45 79 -66 100 -66
38 0 -27 29 -46 54 -43 58 3 3 9 0 13 -6 4 -6 29 -11 55 -11 26 -1 52 -4 57
-7 6 -4 10 -1 10 4 0 11 -12 15 -43 11 -19 -1 -107 50 -107 63 0 11 32 9 83
-7 40 -12 47 -12 61 3 15 15 17 14 22 -6 5 -16 20 -26 59 -37 56 -17 93 -46
59 -46 -17 -1 -16 -3 5 -20 21 -18 22 -20 4 -20 -29 0 -33 -9 -15 -39 8 -15
13 -35 9 -44 -6 -15 -9 -15 -44 -1 l-38 16 18 -20 c10 -11 17 -27 15 -36 -2
-11 -15 -5 -48 24 -39 34 -41 38 -20 34 22 -4 22 -3 -5 10 -17 8 -34 11 -39 6
-11 -11 18 -58 40 -67 21 -8 47 -60 34 -68 -6 -4 -27 7 -47 24 -21 17 -42 31
-48 31 -5 -1 -1 -8 11 -18 27 -23 56 -67 48 -75 -3 -3 -21 -3 -40 0 -22 4 -34
2 -34 -6 0 -6 8 -11 18 -11 19 0 42 -18 42 -32 0 -33 -108 65 -154 140 -21 35
-51 67 -75 82 -23 14 -41 30 -41 37 0 20 35 15 55 -7 31 -34 29 -13 -3 27 -37
47 -65 133 -42 133 5 0 14 -17 21 -38z m439 -22 c0 -5 -6 -10 -14 -10 -8 0
-18 5 -21 10 -3 6 3 10 14 10 12 0 21 -4 21 -10z m-1460 -56 c0 -8 -4 -14 -10
-14 -5 0 -10 4 -10 9 0 5 -3 18 -7 28 -6 16 -5 16 10 4 9 -7 17 -20 17 -27z
m1907 29 c-10 -9 -109 -21 -126 -15 -11 4 -10 7 5 13 24 10 130 11 121 2z
m-1812 -101 c7 -69 6 -74 -11 -70 -16 3 -20 14 -22 67 -6 120 21 122 33 3z
m445 48 c13 -9 12 -12 -5 -26 -19 -14 -17 -15 23 -8 25 4 42 3 42 -3 0 -15
-31 -40 -60 -48 -14 -4 -33 -14 -42 -23 -16 -14 -18 -13 -18 3 0 10 7 27 17
37 23 26 10 33 -28 14 -18 -9 -34 -16 -36 -16 -10 0 0 22 23 49 26 31 57 39
84 21z m1103 -29 c85 -59 125 -120 153 -233 15 -59 15 -75 3 -127 -7 -33 -14
-59 -16 -58 -1 2 -14 29 -28 60 -26 61 -26 78 0 26 9 -17 19 -29 21 -26 11 11
-28 191 -50 236 -14 26 -50 71 -81 99 -63 58 -64 66 -2 23z m-1346 -99 c-24
-21 -57 -43 -73 -49 -55 -20 -173 -50 -169 -43 6 10 125 54 153 57 23 2 70 31
92 58 7 8 19 15 27 15 8 0 -6 -17 -30 -38z m523 -128 c36 -97 27 -125 -60
-189 -57 -42 -80 -43 -25 -1 37 28 69 79 62 99 -2 7 -9 1 -17 -13 -15 -30 -60
-80 -72 -80 -5 0 -2 13 7 30 22 43 18 49 -10 15 -14 -16 -25 -24 -25 -17 0 8
-23 -7 -51 -32 -59 -53 -87 -62 -43 -13 27 29 26 29 -11 -4 -22 -20 -57 -42
-77 -49 -40 -12 -60 -30 -34 -30 21 0 20 -6 -6 -43 -18 -25 -19 -29 -5 -24 49
20 51 19 23 -11 -17 -18 -25 -32 -19 -32 6 0 16 7 23 15 15 18 95 65 111 65 7
0 -2 -16 -21 -35 -48 -49 -30 -43 44 15 35 28 67 50 71 50 3 0 3 -10 -1 -22
-6 -21 -5 -22 12 -8 10 8 28 22 39 31 15 13 29 16 54 11 l33 -7 -37 -25 c-21
-14 -50 -41 -64 -60 l-25 -35 29 26 c34 30 65 48 106 59 27 8 40 -2 19 -15 -5
-3 -19 -20 -32 -38 l-23 -32 35 26 c56 40 106 59 119 46 9 -9 17 -8 33 2 18
11 22 11 30 -3 5 -9 39 -32 76 -50 37 -19 89 -53 117 -77 42 -38 46 -40 28
-14 -12 17 -44 52 -72 78 -75 71 2 55 104 -21 82 -63 84 -57 6 17 -81 77 -77
80 46 27 77 -32 106 -33 38 -1 -65 31 -55 31 35 0 40 -14 75 -23 77 -21 4 4
-41 43 -73 63 -18 11 -17 12 5 12 l25 1 -25 28 c-45 49 -54 68 -16 33 64 -60
40 -16 -34 61 -38 40 -65 63 -59 51 5 -12 15 -25 20 -28 5 -3 15 -15 20 -25
13 -24 -1 -20 -78 23 -53 29 -76 31 -53 3 7 -8 34 -27 59 -42 49 -28 112 -82
112 -96 0 -16 -21 -7 -57 26 -49 43 -75 56 -99 50 -14 -4 -32 10 -67 50 -26
30 -62 65 -79 78 l-33 23 33 -43 c19 -23 38 -44 43 -47 5 -4 9 -10 9 -15 0
-16 -40 3 -74 36 -22 21 -36 29 -39 21 -3 -8 -11 -6 -26 8 -16 14 -20 26 -16
43 3 13 1 30 -6 38 -20 24 -3 44 31 38 31 -7 39 3 18 24 -17 17 5 16 40 -2 15
-7 38 -17 51 -21 20 -6 23 -4 18 9 -10 26 5 19 71 -35 35 -28 66 -48 70 -45 3
4 55 -42 114 -101 59 -59 108 -104 108 -100 0 14 -52 111 -77 145 -39 53 -7
37 72 -35 41 -38 101 -89 133 -115 33 -26 70 -61 82 -78 l22 -31 -64 36 c-36
19 -70 35 -77 35 -7 0 10 -25 38 -56 28 -30 51 -60 51 -65 0 -15 -16 -10 -36
12 -10 11 -28 26 -39 32 -17 9 -16 6 5 -20 14 -17 46 -57 73 -89 89 -110 160
-292 201 -513 18 -92 21 -201 7 -201 -5 0 -12 24 -16 53 -40 314 -86 450 -197
588 -45 55 -34 11 26 -103 69 -133 121 -273 136 -370 15 -93 9 -343 -9 -375
-6 -13 -16 -23 -20 -23 -5 0 -9 89 -8 198 1 213 -14 315 -69 460 -48 129 -53
123 -47 -59 4 -100 1 -197 -5 -247 l-12 -83 34 -67 c62 -124 80 -218 64 -337
-8 -64 -7 -78 18 -150 35 -104 46 -304 21 -402 -23 -88 -85 -209 -100 -194 -8
8 -8 19 2 44 60 145 81 224 81 302 0 92 -18 179 -54 256 -27 59 -26 61 -29
-81 -1 -53 -7 -104 -14 -115 -11 -17 -13 -10 -14 50 l-1 70 -15 -45 c-11 -34
-13 -65 -7 -125 9 -104 9 -192 -1 -285 -9 -90 11 -184 52 -239 l26 -36 -31 29
c-18 16 -42 55 -54 85 -20 49 -22 72 -20 196 1 131 0 144 -25 203 -25 60 -26
64 -12 120 9 35 14 105 13 182 -1 102 -5 137 -23 190 -17 48 -26 110 -36 240
l-12 175 -1 -190 c-1 -170 1 -195 18 -234 24 -52 43 -173 35 -213 -10 -43 -27
-46 -20 -4 13 67 -3 141 -43 198 -29 43 -37 62 -37 100 0 28 -4 47 -10 45 -16
-6 -17 -124 -2 -178 8 -27 13 -49 10 -49 -9 0 -66 43 -130 98 -35 29 -63 50
-63 47 0 -4 27 -44 59 -90 60 -84 96 -145 86 -145 -12 0 -162 124 -188 155
-15 19 -34 50 -42 69 -9 20 -17 36 -19 36 -2 0 0 -21 5 -46 11 -57 44 -132 71
-161 28 -30 17 -29 -32 2 -22 14 -44 25 -49 25 -15 0 27 -144 46 -157 75 -56
244 -74 321 -36 23 11 39 16 35 10 -3 -5 -31 -20 -62 -34 -110 -49 -252 -40
-373 24 -29 15 -56 29 -59 31 -14 6 54 -216 78 -258 33 -56 105 -133 150 -161
51 -32 32 -35 -33 -5 -74 34 -135 84 -171 141 -15 24 -31 44 -35 45 -12 0 -19
-164 -9 -199 15 -49 46 -91 98 -131 65 -51 103 -113 103 -170 0 -36 -5 -51
-22 -66 -13 -10 -17 -12 -10 -4 18 21 14 91 -8 127 -11 18 -39 45 -62 60 -69
46 -122 105 -137 152 -9 32 -11 85 -6 210 7 154 6 170 -14 222 -22 57 -46 98
-54 89 -2 -3 3 -66 10 -140 l15 -135 -32 -167 c-35 -182 -57 -222 -46 -85 15
199 18 315 9 332 -8 13 -11 4 -16 -41 -3 -33 -18 -94 -32 -137 -32 -98 -33
-192 -4 -257 39 -85 51 -162 37 -236 -14 -77 -26 -64 -28 31 -3 86 -18 128
-19 52 -1 -49 -4 -58 -18 -55 -10 2 -24 25 -36 61 -14 44 -26 61 -49 73 -29
15 -31 15 -23 -2 33 -76 48 -137 37 -154 -9 -15 -6 -27 13 -62 37 -65 55 -108
56 -132 0 -11 4 -30 9 -41 11 -23 2 98 -11 160 -5 27 -4 44 4 54 10 11 13 9
18 -15 18 -81 60 -227 74 -261 15 -33 18 -35 24 -18 8 19 8 19 20 -2 6 -12 16
-59 22 -104 11 -77 10 -82 -10 -102 -20 -21 -21 -21 -21 -2 0 11 5 38 10 60 8
37 7 42 -20 68 -21 21 -31 25 -34 16 -3 -8 -21 -108 -41 -224 -39 -229 -41
-239 -53 -231 -9 5 15 221 27 246 4 8 8 63 9 121 3 104 2 107 -39 205 -23 54
-47 113 -53 129 -7 17 -23 53 -38 80 -14 28 -42 92 -63 144 -53 134 -49 160
43 297 52 76 77 125 92 177 12 40 27 88 34 107 14 36 9 63 -18 102 -13 18 -14
14 -9 -41 5 -56 3 -68 -30 -134 -39 -78 -90 -144 -140 -179 l-32 -22 33 37
c39 46 74 114 96 186 9 30 16 56 16 59 0 2 -23 -17 -51 -42 -66 -59 -80 -59
-34 1 62 81 79 185 51 306 -7 32 -16 60 -18 62 -2 3 -4 -33 -4 -78 -1 -76 -4
-92 -51 -204 -36 -86 -68 -145 -112 -203 -33 -45 -61 -78 -61 -75 0 4 25 53
55 109 75 141 89 241 21 151 -39 -51 -50 -43 -21 15 31 61 31 86 0 180 l-25
75 8 -55 c12 -90 6 -131 -32 -218 -20 -46 -36 -100 -36 -120 0 -28 -3 -33 -10
-22 -15 23 -12 77 10 164 16 65 17 88 8 135 -13 70 -32 105 -23 43 8 -59 -5
-47 -51 45 -37 74 -39 83 -39 170 0 89 1 93 47 184 l47 92 -39 -38 c-22 -21
-56 -70 -77 -109 -34 -64 -38 -78 -38 -146 0 -71 3 -81 59 -194 l58 -119 -16
-74 c-21 -98 -20 -156 5 -263 13 -53 18 -97 13 -107 -6 -15 -8 -14 -11 7 -2
14 -13 57 -24 97 -17 60 -19 97 -17 235 l3 163 -57 101 c-32 55 -58 103 -58
106 0 4 -5 19 -11 35 l-11 28 -18 -35 c-22 -40 -25 -115 -7 -145 7 -12 31 -45
53 -75 23 -30 46 -70 53 -89 18 -56 12 -59 -13 -6 -12 28 -47 77 -77 109 -54
59 -54 59 -54 125 0 56 4 72 28 107 25 37 27 47 21 91 -3 27 -1 66 4 86 6 20
7 37 3 37 -18 0 -81 -64 -89 -93 -6 -17 -13 -91 -16 -164 -7 -132 -7 -132 22
-190 36 -72 46 -113 36 -155 -8 -32 -8 -31 -15 20 -5 35 -16 64 -35 88 -60 75
-57 59 -46 246 8 154 12 179 34 223 14 28 30 73 36 100 6 28 14 59 18 70 14
39 -57 -38 -87 -95 l-30 -55 5 70 c5 79 32 159 76 225 16 24 27 46 25 48 -5 5
-61 -33 -97 -66 l-28 -26 0 23 c0 35 35 94 79 134 23 20 41 40 41 43 0 3 -16
3 -36 -1 -41 -7 -40 -11 -9 75 9 25 23 78 31 117 7 40 28 100 44 134 39 76 74
209 60 223 -15 15 -26 -1 -45 -69 -21 -72 -35 -101 -69 -137 -34 -38 -49 -36
-41 5 14 64 46 136 81 182 20 25 33 49 30 52 -9 10 -89 -44 -133 -89 -23 -24
-49 -61 -57 -83 -15 -40 -15 -40 -15 -9 -1 33 28 83 84 145 37 41 50 78 60
161 4 34 15 67 27 83 27 34 30 28 13 -20 -18 -51 -20 -118 -2 -113 6 3 30 31
51 63 42 64 121 145 139 145 7 0 -9 -19 -35 -43 -25 -23 -55 -55 -65 -72 l-18
-29 43 24 c24 14 64 46 88 72 25 27 47 48 49 48 3 0 5 -9 5 -20 0 -24 17 -26
41 -4 17 16 18 15 10 -12 -5 -16 -16 -47 -25 -68 -16 -39 -16 -39 3 -22 10 9
42 26 70 37 28 10 89 43 135 73 89 57 105 64 148 58 23 -4 31 -13 48 -58z
m893 -39 c24 -35 15 -27 -44 40 -32 37 -35 42 -10 20 18 -16 42 -43 54 -60z
m-818 -52 c-11 -20 -30 -43 -42 -51 l-23 -14 16 32 c12 23 15 45 10 83 l-7 52
33 -33 33 -32 -20 -37z m818 -42 c82 -96 102 -125 73 -101 -37 29 -197 221
-172 204 15 -9 60 -56 99 -103z m-1670 77 c-44 -48 -67 -110 -67 -180 0 -76
-15 -78 -23 -4 -7 59 16 122 63 170 38 39 61 51 27 14z m1498 -7 c13 -10 40
-49 59 -86 20 -39 54 -84 79 -106 56 -50 91 -97 91 -123 0 -14 -7 -7 -21 21
-12 26 -41 58 -71 80 -38 27 -57 51 -75 92 -15 33 -44 74 -70 99 -45 42 -39
60 8 23z m370 -110 c16 -44 20 -68 15 -111 -9 -75 -57 -250 -68 -250 -6 0 -7
8 -3 18 46 119 45 270 -3 379 -18 39 -32 77 -32 85 1 26 70 -66 91 -121z
m-2152 84 c75 -44 97 -62 125 -102 28 -40 28 -43 16 -88 -12 -42 -10 -97 6
-160 6 -24 4 -25 -34 -25 -37 0 -41 2 -47 33 -4 17 -23 77 -42 132 -43 128
-74 237 -65 233 4 -2 22 -12 41 -23z m1729 -16 c28 -22 62 -68 62 -84 0 -5
-22 13 -50 40 -63 62 -70 90 -12 44z m-534 -100 l39 -11 -29 -25 -29 -24 35 4
c19 3 43 9 54 13 16 6 17 4 7 -13 -13 -26 -51 -33 -89 -18 -16 7 -48 16 -70
20 -58 9 -61 22 -10 44 53 24 45 23 92 10z m993 -261 c-3 -7 -5 -2 -5 12 0 14
2 19 5 13 2 -7 2 -19 0 -25z m-1977 -133 l25 -27 -45 -39 c-25 -21 -49 -37
-55 -36 -10 4 -46 120 -59 191 l-8 39 59 -50 c32 -28 69 -63 83 -78z m1967 78
c-3 -10 -5 -4 -5 12 0 17 2 24 5 18 2 -7 2 -21 0 -30z m-2048 -681 c17 -73 31
-143 31 -155 -1 -48 -27 14 -69 163 -46 161 -51 228 -20 295 12 28 13 24 20
-70 3 -55 20 -160 38 -233z m2532 -114 c1 -136 -19 -178 -124 -265 l-80 -66 7
53 c9 69 18 86 75 140 41 38 53 60 82 142 18 53 35 95 36 94 2 -2 3 -46 4 -98z
m-2427 -218 c9 -22 16 -49 16 -60 0 -34 -16 -22 -29 23 -7 23 -15 50 -17 60
-10 34 14 16 30 -23z m2406 -154 c-17 -35 -46 -77 -62 -93 l-30 -28 7 25 c15
54 100 178 113 166 3 -3 -10 -35 -28 -70z m-2973 -88 c-3 -7 -5 -2 -5 12 0 14
2 19 5 13 2 -7 2 -19 0 -25z m2114 -279 c-9 -23 -10 -23 -10 -2 -1 12 2 30 6
40 6 15 8 15 11 2 1 -8 -2 -26 -7 -40z m735 -150 c33 -35 80 -82 105 -104 66
-60 126 -155 139 -223 6 -31 13 -69 16 -83 3 -16 19 -36 42 -50 20 -13 37 -31
37 -39 0 -9 -40 -35 -98 -64 -54 -26 -96 -50 -93 -53 14 -14 164 67 270 146
161 121 215 149 313 160 153 18 449 34 488 27 31 -6 53 -21 98 -66 31 -33 57
-64 57 -69 0 -5 -10 -11 -22 -13 -15 -2 -24 -11 -26 -26 -3 -17 -8 -21 -23
-17 -15 5 -19 2 -19 -14 0 -31 -12 -25 -42 19 -44 64 -56 60 -352 -107 -144
-80 -430 -240 -636 -355 -206 -115 -384 -218 -395 -230 -20 -20 -20 -21 0 -14
10 4 40 9 65 13 l45 5 -60 -36 c-67 -41 -111 -84 -98 -97 5 -5 -6 -53 -24
-109 -33 -99 -34 -101 -18 -152 8 -29 18 -82 21 -118 6 -63 5 -67 -30 -114
-37 -52 -40 -72 -7 -42 18 16 19 16 30 -15 9 -26 8 -37 -5 -56 -19 -30 -15
-63 11 -77 11 -6 22 -12 24 -13 16 -10 -113 -103 -142 -103 -20 0 -24 15 -36
118 -5 46 -12 86 -16 90 -18 18 -26 -33 -23 -145 2 -67 1 -120 -3 -117 -4 2
-23 -3 -43 -11 -19 -8 -41 -15 -49 -15 -24 0 -36 42 -48 165 -6 66 -13 124
-17 129 -15 25 -19 -42 -9 -153 10 -116 10 -124 -8 -137 -21 -16 -61 -19 -69
-5 -3 4 -19 11 -36 14 -28 6 -30 9 -30 54 1 27 6 77 13 113 12 67 12 120 -2
120 -4 0 -11 -37 -14 -82 -9 -118 -17 -150 -39 -156 -14 -3 -17 -9 -11 -21 4
-9 9 -53 11 -97 3 -80 3 -82 -22 -88 -14 -3 -30 -15 -36 -25 -9 -17 -6 -19 26
-18 46 1 64 -22 64 -79 0 -33 -5 -47 -22 -58 -26 -19 -34 -14 -54 32 -33 81
-52 152 -64 249 -12 91 -11 114 4 200 9 54 22 127 28 163 16 98 48 176 109
265 43 62 63 106 93 200 87 275 147 359 351 491 50 32 119 79 155 105 36 25
88 58 117 73 66 33 79 52 18 26 -60 -26 -60 -26 -62 10 -10 117 -9 125 31 202
35 69 38 81 33 130 -3 29 -40 150 -81 268 -42 118 -76 219 -76 225 0 5 19 -11
43 -36 23 -25 69 -75 103 -110z m-2929 -184 c-8 -174 -33 -178 -44 -7 -6 95
-5 99 18 121 22 21 24 21 28 4 2 -10 1 -63 -2 -118z m3418 22 c24 -19 16 -60
-26 -123 -20 -31 -29 -40 -25 -24 4 14 10 55 13 93 3 37 9 67 12 67 4 0 15 -6
26 -13z m-3070 -237 c-25 -79 -45 -151 -46 -159 0 -10 -3 -11 -5 -4 -13 31 36
241 74 323 16 34 17 34 20 10 2 -14 -18 -90 -43 -170z m1264 62 c13 -46 14
-122 2 -122 -5 0 -12 19 -16 41 -4 23 -16 60 -26 83 -10 23 -19 52 -18 66 l0
25 24 -28 c13 -15 29 -44 34 -65z m631 84 c0 -2 -8 -10 -17 -17 -16 -13 -17
-12 -4 4 13 16 21 21 21 13z m-600 -266 c23 -23 24 -33 10 -61 -12 -21 -50
-25 -68 -7 -7 7 -12 29 -12 50 0 34 3 38 25 38 14 0 34 -9 45 -20z m-2635
-364 l50 -11 -43 -13 c-36 -11 -51 -10 -102 4 -33 9 -57 20 -54 25 7 12 88 10
149 -5z m285 -61 c272 -36 400 -65 400 -92 0 -30 -306 -4 -490 42 -94 24 -170
51 -170 60 0 10 151 4 260 -10z m2950 -6 c0 -40 -25 -189 -32 -189 -11 0 -10
143 2 174 10 26 30 36 30 15z m-2265 -178 c44 -1 64 -10 170 -76 139 -87 176
-102 345 -147 96 -25 117 -34 92 -36 -52 -5 -294 45 -406 84 -121 42 -268 85
-279 81 -5 -1 31 -34 80 -72 347 -277 533 -430 524 -433 -26 -9 -127 53 -247
150 -170 137 -533 421 -561 439 -13 7 -23 16 -23 19 0 3 57 2 127 -2 71 -3
151 -6 178 -7z m1639 3 c11 -29 6 -62 -10 -68 -18 -7 -64 18 -64 35 0 41 60
68 74 33z m425 -11 c0 -16 -6 -55 -13 -88 -10 -50 -16 -61 -36 -63 -19 -3 -22
0 -18 22 l5 25 -43 -25 c-49 -29 -58 -20 -18 17 14 13 44 50 65 82 44 63 59
71 58 30z m-2433 -60 c65 -32 80 -51 125 -158 25 -60 46 -92 83 -129 49 -46
49 -48 16 -31 -88 44 -135 90 -184 184 -28 51 -66 107 -88 126 -47 43 -28 46
48 8z m1524 -182 c0 -51 -12 -83 -25 -69 -7 7 8 128 16 128 5 0 9 -27 9 -59z
m1670 13 c16 -41 10 -141 -14 -259 -22 -105 -24 -109 -36 -80 -15 36 -5 332
12 352 16 20 27 16 38 -13z m-2030 -113 c9 -36 36 -189 85 -484 15 -86 32
-176 40 -200 13 -41 14 -41 9 38 l-5 80 25 -30 c61 -71 120 -295 167 -635 l19
-135 -5 105 c-6 129 -53 414 -95 575 -27 103 -80 344 -80 368 0 4 -4 7 -10 7
-5 0 -10 -8 -10 -17 0 -10 -3 -13 -9 -7 -13 14 -81 189 -81 209 0 17 1 17 20
0 18 -17 20 -17 20 -1 0 9 -7 31 -16 47 -29 57 -8 51 47 -12 70 -81 79 -97 79
-153 0 -80 21 -195 71 -400 80 -322 115 -483 169 -776 69 -379 127 -639 191
-858 22 -76 32 -139 39 -237 8 -124 54 -418 101 -643 19 -94 24 -140 13 -130
-10 11 -94 323 -120 448 -17 85 -28 181 -35 300 -9 184 -6 171 -99 500 -32
115 -60 180 -33 78 59 -227 98 -482 107 -698 5 -137 -1 -127 -49 92 -20 90
-52 226 -71 303 -19 77 -52 253 -74 390 -41 265 -59 359 -67 352 -8 -9 57
-442 107 -703 27 -143 77 -380 111 -525 42 -183 62 -289 64 -344 2 -58 9 -95
26 -133 19 -44 21 -55 10 -62 -11 -6 -13 -23 -8 -69 4 -34 5 -61 3 -61 -7 0
-55 225 -61 290 -3 36 -24 142 -46 235 -22 94 -58 249 -80 345 -45 200 -213
1050 -259 1310 -20 112 -52 245 -90 370 -53 173 -108 385 -124 477 -4 24 -1
35 12 42 16 9 16 12 -1 58 -10 26 -27 114 -38 195 -10 81 -22 155 -26 165 -5
14 -1 13 21 -6 14 -14 30 -41 36 -60z m1315 33 c-27 -14 -147 -77 -265 -139
-190 -100 -497 -241 -506 -233 -9 10 466 292 555 329 80 34 199 67 241 68 20
0 15 -5 -25 -25z m95 -49 c0 -17 -55 -89 -81 -104 -16 -10 -83 -33 -149 -50
-65 -18 -158 -52 -207 -76 -82 -40 -86 -41 -53 -13 19 16 134 78 255 138 218
107 235 115 235 105z m1722 -232 c-20 -261 -18 -251 -68 -302 -24 -24 -47 -42
-50 -39 -8 8 119 508 129 508 1 0 -4 -75 -11 -167z m-3964 -118 c7 -14 12 -34
12 -44 0 -14 -46 -139 -54 -149 -2 -1 -19 24 -40 55 -20 32 -43 68 -52 80 -15
21 -14 23 38 52 65 38 81 38 96 6z m2092 -172 c0 -9 -48 -64 -106 -122 -106
-105 -111 -102 -28 15 43 61 106 124 124 124 6 0 10 -7 10 -17z m285 -260 c20
-24 32 -43 27 -43 -21 0 -82 62 -82 83 0 12 4 17 9 12 4 -6 25 -29 46 -52z
m359 -244 c-115 -319 -167 -443 -214 -508 -23 -31 -28 -46 -21 -55 6 -7 17
-31 25 -54 14 -39 14 -42 -2 -42 -10 0 -28 7 -40 16 -19 13 -22 24 -22 75 0
53 10 86 79 253 44 106 100 235 125 286 46 94 126 224 133 217 2 -3 -26 -87
-63 -188z m-3229 109 c33 -21 56 -38 51 -38 -15 0 -113 59 -127 77 -16 20 -18
20 76 -39z m-1215 7 c105 -22 258 -71 305 -98 l40 -23 3 -124 3 -124 -27 24
c-15 14 -48 54 -75 89 -70 91 -61 53 11 -49 93 -131 93 -133 73 -175 -10 -21
-23 -35 -32 -33 -20 4 -104 132 -181 276 -78 145 -90 165 -97 158 -3 -3 45
-107 106 -232 61 -124 111 -229 111 -231 0 -3 -18 9 -39 27 -41 31 -251 156
-281 165 -10 3 -38 49 -63 103 -45 96 -117 262 -117 271 0 8 187 -9 260 -24z
m504 -105 c31 -44 56 -84 56 -90 0 -15 -16 -12 -31 6 -7 9 -39 34 -72 56 -49
33 -57 43 -51 61 8 26 23 47 34 47 5 0 33 -36 64 -80z m3707 40 c26 -15 24
-34 -7 -51 -25 -13 -28 -12 -50 16 -13 17 -24 33 -24 38 0 11 58 9 81 -3z
m-2653 -53 c2 -16 1 -36 -3 -45 -6 -15 -8 -14 -19 7 l-13 23 -6 -31 c-4 -17
-11 -31 -17 -31 -11 0 -12 19 -3 73 5 34 9 38 32 35 20 -2 27 -9 29 -31z m127
-16 c7 -13 -2 -17 -50 -25 l-40 -6 35 20 c40 22 47 23 55 11z m-1211 -81 c95
-75 117 -109 159 -240 19 -58 38 -114 42 -125 3 -11 -17 5 -47 36 -57 60 -140
209 -140 253 0 14 -1 26 -3 26 -1 0 -22 -29 -46 -65 -62 -91 -74 -87 -66 23 6
84 16 152 23 152 1 0 37 -27 78 -60z m345 -38 c37 -73 124 -313 116 -320 -9
-9 -27 16 -93 124 -58 96 -62 105 -68 184 -8 97 1 100 45 12z m4271 -68 c-12
-75 -31 -110 -76 -136 -29 -17 -28 -15 26 96 30 63 56 113 58 111 1 -1 -2 -33
-8 -71z m-300 29 c0 -40 -51 -102 -117 -143 -80 -50 -139 -103 -160 -145 l-15
-30 36 34 c19 19 38 33 40 30 3 -2 26 -80 51 -173 25 -92 49 -175 52 -183 5
-12 1 -14 -16 -8 -20 6 -21 4 -15 -22 7 -30 7 -29 5 -55 -2 -30 -25 -21 -115
47 -48 35 -114 79 -146 96 -33 17 -60 35 -60 39 0 12 28 20 68 20 l35 0 -24
26 c-23 25 -24 26 -5 40 19 13 19 14 -7 38 -15 14 -27 28 -27 32 0 19 47 78
93 116 29 23 99 84 157 134 147 126 170 141 170 107z m-5058 -100 c46 -54 102
-121 126 -149 l42 -51 -49 -7 c-70 -9 -110 -40 -156 -124 -22 -40 -60 -96 -85
-125 l-45 -52 40 24 c22 14 62 40 88 58 27 19 50 33 50 31 1 -2 1 -53 -1 -113
l-3 -111 -46 -29 -46 -29 -16 24 c-27 42 -104 131 -200 233 -77 82 -90 100
-79 110 29 24 80 98 154 223 70 119 118 184 135 184 4 0 45 -44 91 -97z m804
-51 c24 -52 39 -92 34 -90 -25 8 -160 114 -160 126 0 7 14 34 32 60 31 45 32
45 41 21 5 -13 29 -66 53 -117z m-706 65 c36 -18 52 -36 88 -96 23 -40 42 -75
40 -76 -2 -2 -45 41 -96 96 -52 54 -90 99 -85 98 4 0 28 -10 53 -22z m1906
-13 c5 -26 3 -39 -7 -45 -7 -4 -14 -24 -15 -43 -1 -45 -16 -62 -61 -71 -21 -4
-54 -15 -75 -26 -47 -24 -51 -24 -38 1 15 28 -4 26 -60 -6 -41 -23 -45 -24
-57 -8 -10 14 -17 15 -44 5 -18 -6 -33 -11 -35 -11 -1 0 -4 12 -6 28 -3 24 -7
27 -43 28 -70 3 -75 4 -75 18 0 7 7 19 15 26 26 21 17 30 -30 30 -25 0 -45 4
-45 10 0 17 61 42 87 35 14 -3 57 -3 95 1 53 5 77 13 99 31 32 27 51 23 48
-10 -3 -47 0 -48 54 -20 28 15 55 29 60 31 4 2 7 -16 8 -40 l0 -43 52 58 c28
31 55 57 59 57 4 0 10 -16 14 -36z m-889 -132 c19 -46 -1 -32 -38 26 -16 26
-29 59 -29 76 1 30 2 29 27 -19 14 -27 32 -65 40 -83z m-385 30 c35 -32 77
-68 94 -79 24 -17 94 -127 94 -147 0 -8 -94 47 -119 68 -23 21 -151 198 -151
210 0 17 25 1 82 -52z m-357 -43 c117 -76 140 -99 115 -114 -12 -7 -137 31
-159 49 -24 19 -112 159 -97 153 9 -4 72 -43 141 -88z m2033 2 c84 -46 152
-85 150 -87 -4 -4 -207 -44 -223 -44 -16 0 -84 133 -91 180 -4 25 -3 41 2 39
5 -2 78 -42 162 -88z m2032 -18 c-7 -37 -21 -86 -31 -109 -10 -23 -23 -74 -29
-115 -18 -131 -30 -143 -160 -155 -51 -5 -66 -1 -200 56 -80 33 -173 73 -208
87 -35 14 -61 31 -59 37 2 6 39 14 83 18 197 16 354 78 543 212 36 25 67 44
69 41 2 -2 -1 -35 -8 -72z m-3736 -55 c60 -110 53 -112 -49 -17 l-64 61 21 41
c16 33 23 39 30 27 5 -8 33 -59 62 -112z m294 45 c11 -29 18 -53 16 -53 -7 0
-44 83 -44 99 0 22 6 11 28 -46z m5901 -94 c1 -32 -2 -37 -26 -42 -16 -3 -30
-4 -32 -2 -2 2 7 31 20 65 20 51 25 57 31 38 3 -13 6 -39 7 -59z m-561 -66
c32 -122 35 -113 -33 -134 -33 -10 -86 -34 -117 -53 l-57 -34 35 71 c38 76
134 227 145 227 4 0 16 -35 27 -77z m-6028 -30 c39 -36 70 -73 68 -81 -2 -9
-36 -26 -83 -43 -44 -15 -106 -39 -138 -53 -32 -14 -60 -26 -62 -26 -3 0 -5
39 -5 88 0 101 19 144 73 167 56 25 73 19 147 -52z m6740 30 c-1 -5 -23 -53
-50 -108 l-48 -100 -1 55 c-1 30 -4 71 -7 90 -6 34 -4 36 38 51 50 19 68 22
68 12z m-6450 -112 c14 -11 19 -20 12 -21 -22 0 -86 37 -112 65 l-25 27 50
-25 c28 -14 61 -34 75 -46z m6306 7 c-7 -69 -33 -188 -44 -203 -4 -6 -32 -20
-62 -33 -30 -13 -61 -26 -69 -29 -17 -8 -11 21 38 182 l36 119 40 12 c68 21
68 21 61 -48z m-2445 21 c43 -22 43 -23 18 -86 -11 -27 -11 -37 3 -66 9 -19
31 -45 48 -57 l31 -22 -3 28 c-3 28 -2 29 37 26 l40 -3 -32 23 c-63 45 -51 80
19 59 56 -17 85 -38 188 -136 47 -44 96 -88 110 -98 l25 -17 -34 6 c-18 3 -65
20 -105 36 -147 61 -147 62 -16 -22 81 -52 100 -60 142 -60 l48 0 0 -45 c0
-25 -2 -45 -5 -45 -28 0 -136 55 -197 100 -43 32 -126 83 -186 114 -171 89
-226 156 -202 245 6 23 15 41 21 41 5 0 28 -9 50 -21z m2255 -167 c-24 -84
-45 -154 -47 -155 -31 -17 -133 -66 -135 -64 -6 6 64 258 77 276 12 18 140
103 146 98 1 -1 -18 -71 -41 -155z m-332 32 l15 -69 -59 -60 c-46 -47 -71 -85
-111 -170 l-53 -110 -16 70 c-10 39 -29 101 -44 140 -15 38 -25 79 -22 91 9
36 46 74 99 102 59 30 171 80 174 78 1 -1 9 -33 17 -72z m-5904 16 c0 -10 -91
-32 -99 -25 -3 4 7 17 23 30 24 19 33 21 53 12 12 -5 23 -13 23 -17z m1710
-15 c7 -8 15 -35 18 -60 2 -25 11 -50 18 -56 19 -16 44 -4 44 21 0 11 4 20 9
20 34 0 10 -67 -27 -77 -32 -8 -62 26 -62 71 0 57 -14 63 -55 28 -19 -18 -44
-32 -55 -32 -23 0 -39 22 -20 28 7 3 29 20 49 38 39 37 62 42 81 19z m-1870 0
c0 -26 -32 -61 -75 -80 -27 -13 -74 -37 -102 -54 l-53 -31 0 38 c0 42 2 44
155 106 63 25 75 29 75 21z m240 -55 c13 -8 12 -10 -3 -10 -28 0 -133 -47
-211 -95 -39 -24 -72 -42 -74 -41 -1 2 8 22 20 44 24 44 62 65 183 97 62 17
66 17 85 5z m5946 -88 c-37 -107 -45 -117 -46 -53 0 45 5 59 31 93 17 21 33
37 35 35 2 -2 -7 -36 -20 -75z m-5822 57 c-10 -17 -334 -229 -334 -219 0 16
112 100 221 166 103 63 126 74 113 53z m3656 -6 c-1 -16 -99 -113 -115 -113
-22 0 -55 18 -55 30 0 6 9 5 20 -2 17 -11 25 -7 68 40 42 45 82 67 82 45z
m-4320 -85 c0 -38 -4 -46 -38 -68 -20 -14 -40 -26 -44 -28 -5 -2 -8 17 -8 42
0 41 3 48 37 71 21 14 41 25 45 25 5 0 8 -19 8 -42z m6820 23 c-38 -73 -170
-262 -170 -246 0 11 7 57 16 102 l17 83 71 39 c39 22 72 40 74 40 1 1 -2 -8
-8 -18z m-7360 -28 c47 -13 109 -39 138 -56 112 -67 127 -77 119 -77 -4 0 -33
13 -65 29 -31 15 -73 33 -92 39 -43 13 -283 48 -400 58 -98 8 -87 18 38 33 96
11 153 5 262 -26z m750 31 c0 -4 -28 -60 -62 -126 l-63 -118 -8 37 c-4 21 -6
63 -5 93 l3 55 60 32 c61 33 75 38 75 27z m4257 -58 c-2 -6 -18 -12 -35 -14
-27 -3 -34 1 -42 23 -19 50 -13 55 35 28 25 -14 44 -30 42 -37z m-127 29 c12
-23 11 -28 -10 -50 -22 -23 -22 -26 -7 -43 23 -26 22 -31 -15 -48 l-33 -15 44
7 c25 3 91 24 148 45 104 39 147 47 158 29 3 -5 -5 -16 -17 -24 -30 -18 -255
-90 -333 -106 -33 -7 -86 -25 -118 -41 -46 -24 -61 -27 -77 -19 -11 6 -20 16
-20 23 0 14 119 67 150 67 24 0 25 8 5 34 -25 34 -19 73 14 91 16 8 39 28 51
45 26 37 42 38 60 5z m1034 0 c-4 -9 0 -15 10 -15 22 0 20 -17 -3 -25 -11 -3
-36 -17 -56 -31 -21 -14 -39 -24 -40 -22 -2 2 0 21 4 43 5 34 11 42 41 52 46
16 50 16 44 -2z m-134 0 c0 -8 -50 -85 -55 -85 -3 0 -5 15 -5 33 0 25 6 37 23
45 25 12 37 14 37 7z m834 -60 c24 -75 29 -134 21 -232 l-7 -88 -24 83 c-13
46 -33 101 -44 122 -20 38 -20 38 2 109 12 40 25 68 28 64 4 -4 15 -30 24 -58z
m-4002 -26 c94 -48 105 -143 24 -218 -20 -19 -29 -22 -38 -13 -9 9 -5 17 14
35 30 28 42 60 34 92 -9 37 -100 101 -190 135 -23 8 -26 13 -17 24 10 12 22
10 74 -11 34 -14 78 -34 99 -44z m4318 22 c0 -48 -1 -50 -36 -61 -19 -7 -37
-10 -39 -8 -4 4 66 118 72 118 2 0 3 -22 3 -49z m-4920 9 c0 -5 -11 -20 -24
-33 -27 -27 -46 -83 -46 -137 0 -33 -1 -33 -17 -17 -38 37 -14 155 36 182 31
17 51 19 51 5z m3975 -15 c0 -13 -104 -109 -111 -103 -11 11 24 75 52 96 29
22 59 25 59 7z m1164 -121 c-32 -136 -39 -151 -105 -233 l-42 -50 -6 77 c-5
56 -3 92 8 132 9 30 21 73 26 95 10 36 18 44 78 76 37 19 68 34 70 33 1 0 -12
-59 -29 -130z m-6614 34 c-4 -51 -14 -109 -23 -128 l-15 -35 -20 93 -20 92 39
35 c21 19 40 34 42 35 2 0 0 -42 -3 -92z m7076 73 c104 -35 167 -73 212 -127
l25 -29 -107 0 c-94 0 -113 -3 -171 -28 -99 -42 -155 -101 -189 -198 -16 -44
-25 -55 -51 -64 -18 -6 -43 -24 -56 -40 l-22 -28 -7 35 c-9 45 5 93 49 172 68
121 225 326 250 326 7 0 37 -8 67 -19z m-1335 -66 l-59 -55 -28 17 c-33 20
-36 28 -11 36 9 3 44 17 77 31 33 14 65 25 70 25 6 0 -16 -24 -49 -54z m-218
-7 c-7 -5 -30 -18 -52 -29 l-38 -21 32 46 c32 44 34 45 52 29 14 -13 16 -18 6
-25z m382 -10 c27 -18 50 -36 50 -41 0 -9 -60 -117 -66 -117 -4 0 -39 112 -49
158 -4 21 -3 32 4 32 6 0 34 -15 61 -32z m-1315 2 c-3 -5 -15 -10 -26 -10 -11
0 -17 5 -14 10 3 6 15 10 26 10 11 0 17 -4 14 -10z m1236 -93 c9 -45 20 -91
24 -102 3 -11 -19 7 -49 40 -31 33 -56 64 -56 68 0 9 53 77 60 77 3 0 12 -37
21 -83z m-6331 58 c14 -8 19 -14 12 -15 -8 0 -28 -7 -45 -15 -30 -14 -35 -13
-92 15 l-60 29 80 0 c51 0 89 -5 105 -14z m235 5 c14 -5 24 -14 20 -19 -3 -5
7 -11 22 -13 21 -2 40 -19 75 -66 27 -35 48 -67 48 -73 0 -5 -30 15 -66 45
-36 30 -92 68 -125 86 -33 17 -57 36 -54 41 8 12 47 12 80 -1z m5879 -34 l25
-34 -32 -25 c-41 -31 -117 -70 -117 -60 0 5 18 16 40 25 52 22 51 38 -2 38
l-42 0 44 45 c24 25 47 45 51 45 4 0 18 -15 33 -34z m-1021 -10 c33 -8 64 -19
70 -25 17 -17 -3 -42 -44 -57 -19 -6 -33 -17 -31 -23 1 -6 -2 -11 -8 -11 -6 0
-10 -4 -10 -10 0 -5 15 -10 33 -11 50 -2 82 -13 85 -32 3 -13 -4 -17 -35 -18
l-38 -1 34 -11 c29 -9 36 -8 47 8 8 10 14 32 14 47 0 16 8 45 17 66 l17 37 4
-46 c5 -71 -10 -144 -30 -144 -53 -1 -20 -50 61 -94 34 -18 61 -36 61 -41 0
-22 -26 -18 -105 16 l-86 37 -70 -13 c-39 -6 -73 -10 -76 -7 -2 3 19 20 49 37
37 21 61 29 81 26 22 -5 27 -2 27 14 0 24 5 23 -56 5 -36 -10 -63 -28 -93 -60
-24 -25 -52 -45 -64 -46 -12 0 -38 -6 -57 -13 -32 -12 -26 -13 70 -12 118 1
167 -9 319 -66 120 -44 166 -75 174 -116 3 -16 17 -43 31 -60 31 -35 32 -42 9
-42 -9 0 -35 17 -56 38 -26 24 -36 30 -28 15 6 -12 11 -33 11 -46 0 -24 -1
-24 -74 -19 -55 3 -82 0 -106 -12 -18 -8 -42 -13 -54 -11 -11 3 -81 -6 -155
-20 -173 -32 -256 -33 -302 -2 -54 36 -49 51 28 92 44 23 57 34 38 30 -16 -4
-42 -12 -57 -20 -35 -17 -35 -5 -2 34 19 23 34 31 58 31 17 0 75 9 128 20 53
12 132 24 175 29 l78 7 -59 8 c-74 11 -190 0 -268 -24 -57 -18 -62 -18 -74 -3
-10 15 -17 15 -54 4 -23 -7 -44 -11 -46 -9 -2 2 5 28 16 56 22 58 17 105 -21
191 -10 24 -19 57 -19 73 l0 29 29 -20 c26 -19 71 -29 71 -16 0 3 -12 33 -26
66 -31 74 -28 98 12 121 61 36 252 49 357 24z m2111 -42 c-40 -90 -73 -152
-85 -160 -23 -14 2 50 52 133 28 46 52 83 54 83 2 0 -7 -25 -21 -56z m-691 -6
c26 -83 36 -140 43 -235 l7 -88 -28 35 c-16 19 -44 51 -63 71 -28 31 -35 46
-39 97 -5 50 -1 69 20 116 14 31 30 56 35 56 5 0 17 -24 25 -52z m336 -40
c-44 -101 -148 -255 -149 -221 0 26 34 110 70 170 45 73 104 146 108 133 2 -5
-11 -42 -29 -82z m-1139 -88 c33 -92 42 -132 46 -200 l3 -85 -13 70 c-8 39
-30 122 -50 185 -32 100 -45 162 -32 149 3 -2 23 -56 46 -119z m-5589 80 c72
-30 154 -79 145 -87 -2 -3 -36 12 -76 32 -39 21 -73 35 -76 33 -10 -11 167
-110 231 -129 65 -20 116 -49 175 -100 l25 -21 -25 16 c-90 58 -179 86 -275
86 -44 0 -67 19 -128 102 -16 21 -38 43 -50 49 -16 9 -11 0 15 -29 20 -23 46
-59 58 -82 20 -39 20 -40 1 -40 -12 0 -52 35 -100 88 -72 78 -79 88 -64 100
26 19 64 14 144 -18z m6105 -7 c7 -10 14 -21 14 -25 0 -7 -61 -30 -67 -24 -4
4 30 66 36 66 2 0 10 -8 17 -17z m65 -100 c52 -58 51 -63 -7 -28 -32 19 -63
35 -68 35 -17 0 17 20 35 20 8 0 26 -12 40 -27z m-743 -170 c5 -121 -1 -163
-22 -163 -9 0 -15 24 -19 83 -9 109 -9 232 0 241 18 18 37 -55 41 -161z m1297
72 c-8 -21 -18 -36 -21 -33 -2 3 3 22 12 42 23 47 30 39 9 -9z m719 13 c-4 -7
-18 -26 -30 -43 -12 -16 -42 -70 -67 -120 -25 -49 -57 -101 -71 -114 -30 -28
-30 -27 -11 54 8 33 15 76 15 96 0 32 6 39 53 71 45 31 106 66 115 68 2 0 0
-6 -4 -12z m-2100 -130 c5 -30 3 -38 -9 -38 -12 0 -15 16 -14 88 1 93 1 94 23
-50z m1572 77 c-9 -14 -21 -25 -27 -25 -7 0 -6 8 3 23 8 12 18 29 23 37 6 10
10 11 13 2 2 -7 -3 -24 -12 -37z m-3731 23 c14 -6 25 -15 25 -20 0 -7 -55 15
-69 28 -9 9 20 3 44 -8z m2309 -88 c35 -150 37 -264 3 -297 -14 -14 -16 -7
-21 68 -11 163 -14 321 -7 313 4 -5 16 -43 25 -84z m-5387 54 c22 -6 110 -114
93 -114 -13 0 -138 119 -125 120 6 0 20 -3 32 -6z m6933 -90 c-12 -25 -24 -43
-26 -42 -2 2 7 35 19 73 17 57 22 65 25 42 2 -15 -6 -48 -18 -73z m-3059 44
c33 -65 77 -200 84 -263 7 -55 25 -86 25 -43 0 35 44 120 76 149 51 45 70 54
28 14 -23 -22 -49 -55 -58 -73 -17 -33 -34 -132 -23 -132 4 0 16 18 27 40 19
38 70 80 97 80 6 0 -2 -13 -18 -29 -43 -43 -36 -66 12 -41 24 13 24 9 0 -32
-11 -18 -23 -50 -26 -71 -9 -48 -20 -54 -35 -17 -16 37 -33 52 -54 44 -14 -5
-13 -10 9 -36 14 -16 25 -34 25 -39 0 -14 -80 -169 -88 -169 -26 1 -37 35 -72
226 -21 115 -36 211 -34 213 2 2 17 -25 33 -60 l30 -64 0 40 c0 22 -14 100
-33 173 -18 72 -32 132 -30 132 2 0 13 -19 25 -42z m-1384 6 c-3 -3 -12 -4
-19 -1 -8 3 -5 6 6 6 11 1 17 -2 13 -5z m66 -11 c-7 -2 -19 -2 -25 0 -7 3 -2
5 12 5 14 0 19 -2 13 -5z m4522 -81 c-26 -111 -42 -130 -129 -156 l-43 -13 63
62 c42 42 73 82 89 120 14 32 28 56 30 53 2 -2 -2 -32 -10 -66z m-5495 -62
c46 -10 173 -60 168 -66 -2 -1 -37 6 -78 17 -41 11 -109 22 -150 26 -87 7
-244 -12 -277 -33 -33 -21 -28 0 5 22 57 38 231 56 332 34z m5756 -71 c-105
-69 -210 -118 -223 -105 -4 3 4 14 17 24 42 30 280 152 297 152 9 0 -32 -32
-91 -71z m-2268 -157 c23 -12 42 -24 42 -26 0 -2 -19 0 -42 5 -67 13 -209 10
-372 -6 -83 -8 -158 -13 -168 -9 -34 10 -18 23 40 29 31 3 100 12 152 20 52 7
142 13 200 11 86 -2 113 -6 148 -24z m2506 -38 c9 -20 16 -38 14 -39 -3 -3
-164 -86 -181 -93 -12 -6 83 132 105 151 30 25 42 21 62 -19z m97 -189 c27
-57 49 -107 49 -110 0 -10 -40 4 -90 30 -25 13 -72 29 -106 35 -63 12 -97 28
-78 36 5 2 45 29 89 59 43 30 80 55 82 55 3 0 27 -47 54 -105z m-2730 46 c28
-22 94 -111 82 -111 -4 0 -28 16 -53 35 -25 19 -63 49 -84 65 l-39 30 35 0
c19 0 46 -8 59 -19z m402 -39 c26 -19 46 -37 43 -39 -5 -5 -116 76 -116 84 0
6 17 -5 73 -45z"/>
<path d="M5237 7963 c-4 -3 -7 -11 -7 -17 0 -6 5 -5 12 2 6 6 9 14 7 17 -3 3
-9 2 -12 -2z"/>
<path d="M5720 8035 c7 -8 20 -15 29 -15 13 1 13 3 -3 15 -26 19 -42 19 -26 0z"/>
<path d="M5843 7989 c14 -8 22 -8 30 0 8 8 3 11 -18 11 -26 -1 -28 -2 -12 -11z"/>
<path d="M5022 7560 c-39 -27 -78 -50 -85 -53 -6 -2 -9 -7 -6 -11 17 -18 169
75 169 104 0 13 7 16 -78 -40z"/>
<path d="M6080 7023 c0 -17 71 -287 77 -293 8 -7 -4 240 -13 268 -3 12 -10 22
-14 22 -5 0 -10 -10 -12 -22 -3 -22 -4 -21 -20 7 -10 17 -17 24 -18 18z"/>
<path d="M5854 6635 c23 -176 18 -273 -14 -303 -19 -18 -18 -20 40 -83 32 -35
59 -58 60 -51 0 8 -9 57 -20 110 -10 54 -26 149 -34 214 -7 64 -19 124 -25
135 -10 15 -11 11 -7 -22z"/>
<path d="M4947 6478 c-48 -62 -67 -118 -66 -193 0 -70 17 -143 18 -82 2 50 31
173 57 237 14 34 23 64 21 67 -3 2 -16 -11 -30 -29z"/>
<path d="M6126 6474 c24 -160 72 -324 97 -324 6 0 8 27 5 73 -4 56 -14 95 -47
172 -49 115 -63 135 -55 79z"/>
<path d="M5521 6155 c-1 -36 35 -99 77 -137 66 -60 68 -44 4 40 -32 42 -64 86
-70 97 l-11 20 0 -20z"/>
<path d="M5244 5490 c-23 -30 -49 -69 -58 -87 -18 -36 -21 -130 -5 -153 7 -11
8 0 3 39 l-6 54 38 -8 c130 -26 126 -26 97 15 -13 17 -20 52 -23 110 l-5 85
-41 -55z"/>
<path d="M6540 4321 c-5 -11 -10 -27 -10 -37 0 -13 4 -11 20 9 11 14 20 30 20
36 0 18 -18 13 -30 -8z"/>
<path d="M6400 3793 c0 -18 5 -33 10 -33 13 0 13 30 0 50 -7 11 -10 7 -10 -17z"/>
<path d="M6095 3768 c10 -34 23 -44 31 -25 6 18 -11 47 -28 47 -5 0 -6 -10 -3
-22z"/>
<path d="M6474 3748 c0 -18 -3 -43 -7 -55 -5 -14 -4 -23 2 -23 13 0 34 77 27
96 -10 25 -23 15 -22 -18z"/>
<path d="M6327 3741 c-8 -37 -33 -41 -47 -8 -9 20 -9 19 -7 -8 2 -27 5 -30 37
-30 31 0 35 3 38 29 5 40 -14 55 -21 17z"/>
<path d="M6180 3738 c0 -9 -3 -30 -6 -47 -5 -25 -3 -31 10 -31 13 0 15 7 10
43 -7 44 -14 62 -14 35z"/>
<path d="M5470 4990 c0 -5 5 -10 11 -10 5 0 7 5 4 10 -3 6 -8 10 -11 10 -2 0
-4 -4 -4 -10z"/>
<path d="M5031 2429 c-4 -26 55 -344 75 -412 12 -38 13 -8 3 79 -7 70 -75 357
-78 333z"/>
<path d="M6231 1184 c-11 -15 -18 -30 -15 -35 15 -25 122 9 132 42 4 10 0 10
-14 -3 -26 -22 -74 -40 -92 -33 -12 4 -12 9 2 30 22 33 13 32 -13 -1z"/>
<path d="M4981 9505 c-47 -40 -54 -77 -46 -249 l7 -152 -27 -33 c-26 -31 -24
-30 38 14 36 25 106 64 154 86 48 23 93 45 100 51 9 7 -2 27 -44 76 -69 82
-68 82 -55 57 5 -11 26 -40 46 -65 46 -58 30 -62 -71 -16 -43 19 -90 38 -105
41 -16 4 -28 11 -28 16 0 5 12 9 28 10 l27 1 -32 14 c-34 15 -44 34 -18 34 20
0 19 18 0 22 -13 2 -11 10 10 40 31 45 56 60 115 69 l45 6 -57 2 c-47 1 -61
-3 -87 -24z"/>
<path d="M5161 9506 c2 -2 15 -9 29 -15 24 -11 24 -11 6 3 -16 13 -49 24 -35
12z"/>
<path d="M5083 9473 c9 -2 25 -2 35 0 9 3 1 5 -18 5 -19 0 -27 -2 -17 -5z"/>
<path d="M5272 9426 l30 -41 -49 -5 -48 -5 75 -27 c106 -38 147 -48 210 -48
l54 0 -69 34 c-39 19 -107 56 -151 83 l-82 50 30 -41z"/>
<path d="M5720 9322 c0 -6 9 -14 21 -17 14 -5 19 -14 17 -28 -2 -17 -12 -23
-43 -27 -57 -7 -34 -16 73 -29 131 -16 196 -43 257 -106 27 -29 59 -67 69 -86
l19 -34 -38 35 c-36 33 -37 34 -31 10 4 -14 10 -40 13 -59 6 -32 5 -33 -17
-21 -12 7 -36 16 -51 20 l-28 8 6 -45 6 -46 -88 6 c-62 4 -93 11 -107 23 -15
14 -58 20 -238 32 -244 16 -250 15 -250 -43 0 -18 -7 -38 -15 -45 -14 -11 -13
-14 1 -25 27 -19 -2 -67 -49 -82 -53 -18 -275 -49 -283 -40 -11 11 55 76 101
99 22 12 67 29 100 38 l60 18 -95 -1 c-104 -1 -163 18 -210 68 -23 25 -23 25
-4 46 19 22 19 22 -2 11 -16 -8 -24 -28 -33 -84 -7 -40 -15 -77 -17 -83 -7
-16 3 118 10 140 4 11 -3 0 -14 -25 -12 -25 -24 -73 -27 -108 -5 -51 -11 -69
-31 -87 -25 -23 -41 -79 -42 -147 0 -77 -86 -134 -245 -163 -38 -7 -56 -14
-40 -14 46 -1 159 25 201 47 22 11 53 34 69 52 68 72 215 132 420 172 112 22
133 24 315 17 107 -5 233 -15 280 -24 47 -8 112 -20 145 -26 35 -6 107 -8 171
-5 64 3 124 2 140 -4 22 -7 47 -5 99 9 80 22 77 25 -10 11 -33 -5 -68 -7 -77
-4 -20 6 -34 52 -42 148 -12 122 -58 220 -169 355 -83 102 -102 119 -143 130
-67 17 -154 24 -154 13z m39 -419 c21 -13 23 -21 19 -71 -4 -45 -10 -60 -33
-80 -24 -20 -35 -23 -74 -18 -25 3 -110 8 -188 12 -159 8 -161 8 -147 81 6 34
36 72 57 73 4 0 7 -22 6 -50 -2 -27 -1 -51 2 -53 7 -7 313 -36 321 -31 11 7
10 72 -2 94 -21 39 -247 70 -347 48 -27 -6 -33 -4 -33 9 0 14 19 15 198 9 151
-6 203 -11 221 -23z m-182 -54 c43 -17 81 -34 86 -38 7 -7 -206 -3 -230 4 -7
2 -10 11 -8 20 3 8 7 22 10 30 7 24 57 18 142 -16z m274 -61 c8 -15 6 -18 -16
-18 -21 0 -25 4 -25 31 0 27 2 30 16 19 8 -8 20 -22 25 -32z"/>
<path d="M4383 8423 c9 -2 25 -2 35 0 9 3 1 5 -18 5 -19 0 -27 -2 -17 -5z"/>
<path d="M4030 7228 c0 -30 -87 -95 -200 -150 -63 -31 -124 -66 -135 -78 -19
-21 -17 -21 22 3 23 15 82 43 131 62 50 20 108 52 130 70 39 34 71 89 58 102
-3 3 -6 -1 -6 -9z"/>
<path d="M4243 7186 c23 -61 29 -113 24 -236 -3 -90 -3 -114 3 -70 18 148 6
320 -22 320 -6 0 -8 -6 -5 -14z"/>
<path d="M3378 6732 c-75 -78 -308 -394 -308 -418 0 -4 30 33 67 82 37 49 114
148 172 219 129 161 125 155 119 160 -2 3 -25 -17 -50 -43z"/>
<path d="M7297 6493 c32 -87 45 -278 21 -315 -10 -16 -17 -66 -22 -164 -3 -77
-11 -178 -17 -223 -5 -46 -8 -85 -6 -88 3 -2 21 16 42 41 33 41 39 56 51 142
8 53 21 109 30 125 13 26 13 36 -1 90 -10 37 -13 74 -9 93 8 38 35 96 45 96
16 0 51 -109 61 -193 8 -69 8 -111 -1 -171 -14 -89 -27 -119 -65 -155 -22 -21
-26 -33 -26 -83 0 -33 -5 -68 -10 -79 -9 -17 -7 -19 17 -19 40 0 155 33 182
52 l23 16 -21 21 c-14 14 -34 21 -61 21 -39 0 -40 1 -40 34 0 25 9 44 30 68
41 44 43 55 38 210 -4 149 -16 188 -99 334 -40 70 -160 214 -179 214 -4 0 4
-30 17 -67z"/>
<path d="M3223 6373 c-36 -50 -53 -90 -59 -147 -8 -67 7 -75 26 -13 6 23 25
71 41 106 16 35 29 68 29 72 0 17 -17 9 -37 -18z"/>
<path d="M2805 6042 c-104 -103 -247 -241 -317 -306 -131 -121 -177 -181 -66
-84 138 119 596 578 576 578 -1 0 -88 -85 -193 -188z"/>
<path d="M7745 5953 c72 -97 155 -251 155 -287 0 -33 21 -46 84 -53 44 -5 56
-3 56 8 0 24 -29 58 -70 84 -22 14 -55 49 -73 78 -31 48 -204 257 -213 257 -2
0 25 -39 61 -87z"/>
<path d="M7708 5474 c-44 -23 -33 -33 16 -16 28 11 40 19 33 24 -16 10 -17 10
-49 -8z"/>
<path d="M4606 5409 c-21 -31 -21 -32 19 -209 19 -85 37 -180 41 -212 l7 -58
42 0 c39 0 69 -8 198 -55 45 -16 91 -14 71 4 -14 13 -143 53 -209 65 l-60 11
-26 135 c-14 74 -31 177 -37 229 -12 105 -22 124 -46 90z"/>
<path d="M4704 5332 c8 -20 17 -62 20 -92 4 -30 16 -101 27 -158 10 -57 19
-105 19 -108 0 -2 5 -4 11 -4 7 0 8 23 4 68 -7 66 -6 68 18 79 l26 12 -35 58
c-58 96 -57 118 6 161 18 12 26 22 18 22 -8 0 -23 -9 -33 -20 -10 -11 -26 -20
-36 -20 -11 0 -24 9 -31 20 -21 33 -28 23 -14 -18z"/>
<path d="M4955 5130 c3 -5 8 -10 11 -10 2 0 4 5 4 10 0 6 -5 10 -11 10 -5 0
-7 -4 -4 -10z"/>
<path d="M2439 5053 c29 -56 150 -124 183 -104 13 8 78 10 226 6 114 -3 221
-8 237 -10 25 -3 26 -2 10 5 -11 5 -141 28 -290 50 -248 38 -319 51 -362 67
-13 5 -13 3 -4 -14z"/>
<path d="M3451 5036 c9 -9 267 -94 304 -100 79 -14 20 12 -128 58 -129 40
-190 55 -176 42z"/>
<path d="M4792 4848 c-17 -17 -15 -23 13 -36 41 -19 29 -32 -15 -17 -47 17
-49 11 -14 -57 14 -28 22 -54 17 -58 -16 -15 -83 -31 -103 -25 -31 10 -23 -7
20 -43 22 -18 56 -36 75 -39 64 -10 83 33 45 107 -24 46 -24 51 -7 74 11 15
20 12 102 -43 53 -34 92 -54 94 -48 2 7 12 30 21 52 15 34 16 48 8 93 -6 28
-14 52 -17 52 -4 0 -13 -15 -19 -34 -22 -59 -36 -63 -84 -24 -72 59 -110 72
-136 46z"/>
<path d="M2373 4538 c-24 -27 -53 -82 -53 -100 1 -7 8 1 17 17 9 17 29 47 45
68 32 40 25 52 -9 15z"/>
<path d="M4658 4523 c-23 -6 -33 -45 -19 -72 19 -35 101 -68 101 -41 0 6 -11
16 -25 22 -43 19 -29 32 45 40 24 3 24 4 -11 24 -43 26 -68 33 -91 27z"/>
<path d="M2835 4359 c-70 -91 -78 -105 -38 -64 22 22 47 46 56 53 14 12 15 11
8 -16 -5 -16 -14 -40 -20 -53 l-12 -24 22 25 c12 14 25 24 29 23 9 -3 22 86
14 98 -10 16 -19 10 -59 -42z"/>
<path d="M2241 4328 c17 -62 46 -65 35 -3 -5 25 -12 35 -26 35 -16 0 -17 -4
-9 -32z"/>
<path d="M2320 4178 c-12 -25 -9 -33 30 -93 23 -36 44 -65 46 -65 2 0 -3 17
-12 38 -9 20 -24 62 -34 92 l-18 55 -12 -27z"/>
<path d="M2549 4028 c-1 -3 -9 -165 -12 -243 -1 -40 6 -67 37 -132 22 -46 43
-83 49 -83 13 0 4 143 -17 265 -9 55 -20 120 -24 144 -4 24 -13 46 -19 49 -7
2 -13 2 -14 0z"/>
<path d="M2476 3742 c9 -36 93 -209 93 -192 0 8 -22 60 -49 115 -27 55 -47 90
-44 77z"/>
<path d="M2640 3465 c0 -6 9 -39 20 -75 l20 -65 -5 60 c-3 33 -12 67 -20 75
-8 8 -15 10 -15 5z"/>
<path d="M2330 1711 c-23 -44 -14 -52 48 -45 87 10 93 18 28 43 -69 25 -63 25
-76 2z"/>
<path d="M2492 1638 c5 -14 63 -36 98 -37 22 -1 21 2 -15 24 -42 26 -89 33
-83 13z"/>
<path d="M3330 1608 c0 -9 28 -22 70 -35 39 -11 70 -19 70 -17 0 5 -91 50
-117 58 -16 5 -23 3 -23 -6z"/>
<path d="M2440 1594 c0 -20 76 -56 132 -64 33 -5 62 -11 64 -13 3 -3 -12 -15
-33 -28 -49 -30 -24 -37 41 -11 l48 18 -41 37 c-22 20 -57 41 -79 46 -61 17
-132 25 -132 15z"/>
<path d="M4147 1533 c-14 -13 -6 -23 52 -62 32 -22 66 -48 75 -56 9 -9 16 -12
16 -7 0 14 -111 132 -124 132 -7 0 -16 -3 -19 -7z"/>
<path d="M3004 1505 c-18 -14 -17 -14 14 -15 47 0 94 -22 125 -59 32 -38 36
-21 7 27 -20 33 -71 62 -108 62 -10 0 -27 -7 -38 -15z"/>
<path d="M2603 1442 c-29 -14 -53 -30 -53 -34 0 -9 64 22 95 46 28 22 18 19
-42 -12z"/>
<path d="M2966 1444 c-23 -23 -20 -37 7 -27 58 20 115 -1 154 -57 14 -19 23
-27 19 -17 -3 10 -6 25 -6 32 0 8 -14 30 -31 50 -28 31 -37 35 -79 35 -31 0
-54 -6 -64 -16z"/>
<path d="M2757 1426 c-58 -24 -97 -51 -97 -67 0 -5 15 0 33 11 40 23 107 37
107 21 0 -7 8 -7 28 1 41 18 47 25 32 43 -17 20 -35 19 -103 -9z"/>
<path d="M4520 1390 c0 -12 78 -70 94 -70 5 0 -8 18 -29 40 -37 38 -65 51 -65
30z"/>
<path d="M1755 1370 c3 -5 11 -10 16 -10 6 0 7 5 4 10 -3 6 -11 10 -16 10 -6
0 -7 -4 -4 -10z"/>
<path d="M2860 1369 c0 -3 12 -11 26 -18 20 -9 30 -9 40 0 23 19 16 24 -26 24
-22 0 -40 -2 -40 -6z"/>
<path d="M2338 1353 c-15 -18 -38 -76 -38 -97 0 -6 12 8 25 31 28 46 79 69
132 58 l28 -5 -30 14 c-42 21 -98 20 -117 -1z"/>
<path d="M4330 1299 c24 -11 51 -25 59 -32 12 -10 13 -9 2 11 -13 25 -49 42
-84 41 -16 0 -9 -6 23 -20z"/>
<path d="M1745 1289 l-50 -19 66 5 c75 6 198 -24 302 -74 l57 -28 -22 25 c-42
45 -219 114 -286 111 -9 0 -39 -9 -67 -20z"/>
<path d="M2714 1275 c-9 -13 -14 -29 -12 -34 1 -5 11 6 20 25 20 40 16 45 -8
9z"/>
<path d="M2020 1286 c0 -2 30 -14 68 -27 37 -12 92 -37 122 -56 l55 -34 -38
36 c-21 20 -37 38 -35 40 2 2 26 -7 53 -21 59 -28 61 -29 46 -10 -17 20 -97
46 -142 46 -20 0 -56 7 -79 15 -46 16 -50 17 -50 11z"/>
<path d="M1650 1240 c-13 -8 -13 -11 0 -24 12 -12 36 -14 140 -8 l125 8 -72
17 c-79 19 -169 22 -193 7z"/>
<path d="M4158 1213 c-27 -17 -48 -52 -48 -80 0 -9 9 -2 23 18 12 18 38 44 56
56 25 17 29 23 15 23 -10 0 -31 -8 -46 -17z"/>
<path d="M4203 1200 c-39 -23 -63 -67 -63 -113 0 -26 8 -43 32 -66 44 -43 66
-41 33 3 -15 20 -20 91 -8 121 3 10 26 30 51 46 45 28 45 29 16 29 -16 0 -43
-9 -61 -20z"/>
<path d="M4957 1184 c24 -20 48 -43 54 -52 8 -13 9 -11 4 13 -7 36 -48 75 -78
75 -19 0 -16 -5 20 -36z"/>
<path d="M1832 1169 c-7 -12 -12 -22 -10 -22 2 -1 39 0 83 3 l80 5 -54 18
c-70 22 -83 22 -99 -4z"/>
<path d="M4718 1158 c19 -32 21 -33 58 -16 25 12 29 10 65 -32 l39 -45 -10 35
c-17 58 -49 82 -113 84 l-55 1 16 -27z"/>
<path d="M1340 1162 c-22 -18 -21 -18 81 -31 57 -7 122 -11 144 -9 46 4 54 1
-103 38 -100 24 -95 24 -122 2z"/>
<path d="M4880 1163 c1 -12 102 -83 117 -83 19 0 -27 67 -55 80 -27 12 -62 13
-62 3z"/>
<path d="M3729 1141 c-28 -9 -82 -42 -76 -47 1 -2 26 4 54 12 59 17 125 6 142
-24 9 -14 10 -15 11 -1 0 40 -78 76 -131 60z"/>
<path d="M3623 1063 c-25 -9 -13 -33 16 -33 15 0 40 -9 55 -21 29 -23 34 -15
11 18 -16 23 -62 43 -82 36z"/>
<path d="M1214 1040 c-60 -24 -19 -41 95 -39 61 1 179 14 156 18 -82 12 -212
30 -220 30 -5 0 -20 -4 -31 -9z"/>
<path d="M1550 964 c-91 -24 -150 -59 -285 -168 -201 -162 -211 -173 -65 -78
74 49 200 128 280 176 79 47 140 86 135 85 -6 0 -35 -7 -65 -15z"/>
<path d="M2505 951 l-40 -19 63 -1 c55 -1 63 1 60 17 -5 24 -36 25 -83 3z"/>
<path d="M1929 941 c-38 -12 -67 -29 -142 -82 l-68 -47 39 5 c37 5 82 -9 82
-25 0 -4 -23 -36 -52 -72 l-52 -65 49 39 c28 22 84 70 125 106 l75 67 86 6
c86 7 314 49 326 61 4 3 -59 6 -138 6 -79 0 -180 2 -224 5 -44 2 -92 1 -106
-4z"/>
<path d="M2475 883 c-44 -8 -107 -26 -140 -40 -33 -14 -81 -31 -107 -38 -62
-18 -85 -31 -99 -57 -12 -22 -12 -22 14 -5 30 20 80 22 126 6 29 -10 34 -9 75
29 47 43 97 72 161 92 22 7 44 16 50 21 5 5 7 9 5 8 -3 -1 -41 -8 -85 -16z"/>
<path d="M2745 896 c-5 -3 -32 -7 -58 -11 -55 -7 -87 -33 -87 -70 0 -31 -20
-40 -122 -54 -93 -13 -113 -21 -179 -68 -49 -35 -51 -38 -28 -43 33 -8 35 -35
5 -73 -14 -18 -37 -48 -53 -67 l-28 -35 43 34 c24 19 75 63 113 98 83 76 107
87 158 73 67 -19 83 -13 160 55 86 76 147 102 264 113 l82 8 -55 18 c-51 17
-192 31 -215 22z"/>
<path d="M6323 757 c80 -88 139 -129 159 -109 16 16 -1 50 -45 93 -59 57 -105
86 -154 97 l-43 10 83 -91z"/>
<path d="M3020 765 c-213 -62 -373 -142 -433 -216 -43 -53 -118 -159 -111
-159 3 0 31 14 63 32 77 42 95 36 89 -33 -3 -27 -2 -47 2 -42 4 4 29 37 55 73
153 203 240 274 455 368 49 21 -6 11 -120 -23z"/>
<path d="M7462 734 c-24 -17 -26 -22 -12 -44 7 -12 33 -15 120 -15 60 0 110 1
110 3 0 1 -32 18 -72 37 -80 39 -112 43 -146 19z"/>
<path d="M3215 726 c-88 -22 -103 -36 -130 -126 -7 -22 -3 -21 37 16 24 22 74
58 111 78 37 21 67 40 67 42 0 7 -32 3 -85 -10z"/>
<path d="M7532 629 c-28 -11 -28 -34 0 -53 25 -18 163 -23 173 -6 14 23 -133
74 -173 59z"/>
<path d="M6010 564 c0 -4 16 -33 36 -66 33 -54 39 -59 64 -53 24 5 33 -1 80
-57 79 -93 85 -98 57 -43 -15 28 -42 85 -61 128 -37 83 -56 99 -85 73 -23 -21
-34 -20 -56 4 -18 19 -35 26 -35 14z"/>
<path d="M851 394 c0 -11 3 -14 6 -6 3 7 2 16 -1 19 -3 4 -6 -2 -5 -13z"/>
<path d="M801 214 c0 -11 3 -14 6 -6 3 7 2 16 -1 19 -3 4 -6 -2 -5 -13z"/>
</g>
</svg>
