<?xml version="1.0" standalone="no"?>
<!DOCTYPE svg PUBLIC "-//W3C//DTD SVG 20010904//EN"
 "http://www.w3.org/TR/2001/REC-SVG-20010904/DTD/svg10.dtd">
<svg version="1.0" xmlns="http://www.w3.org/2000/svg"
 width="1024.000000pt" height="1024.000000pt" viewBox="0 0 1024.000000 1024.000000"
 preserveAspectRatio="xMidYMid meet">

<g transform="translate(0.000000,1024.000000) scale(0.100000,-0.100000)"
fill="#000000" stroke="none">
<path d="M5235 9736 c-149 -61 -222 -105 -336 -199 -108 -89 -116 -99 -142
-163 -15 -38 -31 -76 -34 -84 -4 -8 20 12 53 45 33 33 88 75 122 92 34 18 62
31 62 29 0 -8 -223 -178 -237 -180 -7 -1 -17 -6 -23 -12 -15 -15 -406 -805
-470 -949 -77 -174 -145 -359 -221 -596 l-62 -196 -57 -32 c-32 -17 -62 -37
-67 -44 -5 -6 -29 -67 -53 -134 l-44 -122 -95 -21 c-157 -35 -354 -88 -556
-150 -104 -32 -284 -86 -400 -119 -202 -57 -343 -107 -525 -186 -47 -20 -175
-68 -285 -107 -501 -176 -699 -273 -956 -468 -85 -65 -102 -94 -141 -240 -17
-66 -19 -83 -8 -90 12 -7 219 -60 555 -141 104 -25 216 -66 553 -205 461 -190
808 -329 971 -389 l105 -39 -90 -85 c-148 -142 -392 -288 -547 -328 -108 -27
-251 -24 -347 9 -41 14 -66 20 -55 12 65 -48 267 -67 403 -40 173 35 299 105
573 318 157 121 198 148 338 216 278 137 355 215 428 432 18 52 32 85 32 72 1
-45 -30 -173 -60 -243 -86 -201 -169 -270 -479 -395 -109 -44 -197 -100 -339
-212 -116 -93 -282 -212 -328 -236 -18 -9 -45 -16 -60 -16 -27 -1 -27 -1 -8
-16 19 -15 19 -17 -30 -57 -27 -23 -91 -82 -141 -132 -74 -75 -99 -108 -132
-176 -23 -46 -44 -102 -47 -124 l-5 -40 14 46 c54 185 170 309 444 473 75 45
167 111 214 153 151 135 321 238 473 286 82 26 233 53 242 43 11 -10 -89 -146
-137 -186 -120 -100 -281 -169 -491 -208 -119 -23 -200 -59 -337 -150 -95 -63
-122 -92 -41 -43 139 83 149 86 324 89 l160 2 -126 -53 c-70 -30 -142 -63
-160 -75 -19 -11 -74 -65 -124 -119 -105 -115 -87 -105 29 15 88 92 105 102
249 156 54 20 121 47 150 60 162 75 209 88 72 20 -74 -36 -83 -43 -52 -38 53
7 181 51 252 85 47 23 54 24 35 8 -46 -38 -244 -127 -334 -150 -109 -28 -100
-35 20 -16 49 8 90 13 92 12 2 -2 -41 -38 -95 -81 -54 -43 -126 -103 -160
-134 -34 -31 -91 -71 -127 -88 -65 -32 -218 -81 -260 -83 -11 -1 -5 -4 14 -8
19 -3 71 -3 115 0 44 4 82 5 83 3 2 -1 -19 -14 -47 -28 -78 -40 -61 -40 22 0
125 60 180 100 261 191 82 90 144 146 301 268 50 39 136 115 193 169 56 55
102 97 102 93 0 -37 -268 -414 -322 -453 -18 -13 -57 -50 -87 -81 l-53 -58 24
45 c14 25 42 76 63 114 37 66 37 68 14 61 -69 -21 -119 -71 -202 -201 -47 -74
-86 -111 -147 -139 l-35 -16 45 6 c80 11 121 44 194 158 36 57 78 114 93 128
l27 24 -16 -25 c-10 -14 -43 -67 -74 -119 -105 -173 -145 -200 -333 -220 -57
-6 -129 -17 -160 -25 -31 -8 -63 -14 -71 -14 -31 0 -258 -85 -342 -129 -58
-29 -110 -66 -151 -106 -35 -34 -47 -48 -28 -31 90 78 210 144 336 185 61 19
98 23 300 28 l230 6 65 32 c36 17 83 48 105 68 43 39 39 38 -44 -12 -30 -18
-62 -33 -70 -33 -14 0 36 31 141 87 15 8 53 42 84 76 65 70 64 55 -2 -44 -106
-161 -372 -321 -554 -336 -54 -4 -77 0 -133 21 -40 15 -88 26 -117 26 -51 0
-141 -28 -176 -55 -12 -10 0 -8 36 6 87 34 170 31 248 -9 34 -18 82 -35 105
-38 38 -6 134 8 177 24 8 3 -11 -19 -43 -50 -114 -112 -149 -248 -97 -381 25
-68 33 -70 19 -7 -13 55 3 131 37 183 56 85 217 155 403 177 103 12 226 49
277 84 37 25 114 94 114 102 0 3 -26 -16 -57 -42 -57 -46 -159 -101 -169 -91
-3 3 18 23 48 45 135 100 203 199 283 417 68 183 143 316 311 551 127 178 179
266 211 354 l24 65 -5 -86 c-6 -104 -18 -137 -79 -208 -43 -50 -105 -137 -283
-396 -66 -97 -154 -259 -154 -285 0 -8 13 8 29 35 16 28 66 91 111 140 46 50
109 130 141 179 33 48 59 85 59 81 0 -20 -139 -276 -185 -339 -62 -87 -68 -98
-134 -236 -92 -193 -204 -310 -376 -393 -278 -136 -324 -160 -360 -192 l-40
-36 51 36 c66 45 151 83 292 130 159 52 257 119 350 240 21 27 20 24 -4 -22
-32 -62 -122 -151 -182 -182 -24 -12 -102 -42 -175 -68 -124 -43 -247 -97
-247 -108 0 -3 17 3 38 14 20 10 101 37 180 60 173 50 257 81 308 114 67 43
178 169 283 321 33 49 61 86 61 81 0 -4 -30 -65 -66 -136 -98 -190 -208 -300
-347 -345 -137 -44 -314 -120 -384 -166 -130 -84 -250 -220 -338 -380 -20 -38
-35 -68 -33 -68 3 0 29 37 59 82 71 108 215 258 308 320 111 76 334 169 372
156 12 -4 -155 -114 -310 -204 -90 -52 -230 -177 -300 -267 -23 -30 -63 -91
-90 -136 -46 -75 -54 -84 -118 -116 -140 -73 -214 -149 -267 -278 -14 -34 -59
-143 -99 -242 -224 -543 -589 -1222 -983 -1827 l-83 -127 32 -5 c18 -3 91 -10
162 -16 508 -42 981 -40 1474 7 203 19 175 21 506 -41 264 -50 532 -57 768
-21 357 54 926 231 1587 492 342 135 417 178 675 384 412 330 833 702 1270
1123 366 353 497 470 325 290 -52 -54 -196 -214 -320 -354 -415 -471 -668
-741 -910 -968 -335 -315 -504 -438 -735 -533 -58 -24 -103 -45 -100 -47 6 -6
338 86 481 133 365 122 571 247 856 522 236 227 292 271 941 736 510 365 690
531 802 738 47 86 50 70 7 -36 -54 -133 -162 -286 -297 -420 -96 -96 -138
-130 -465 -380 -571 -437 -741 -582 -815 -692 -123 -184 -291 -316 -645 -508
-58 -31 -98 -55 -90 -52 8 2 123 42 255 87 700 240 1074 433 1533 792 93 73
281 221 418 328 539 421 546 427 749 680 176 220 237 274 333 295 17 3 32 9
32 12 0 14 -106 203 -158 282 -140 213 -449 445 -619 467 -30 3 -113 1 -185
-7 l-132 -13 -72 80 c-101 109 -128 161 -121 229 7 66 47 146 90 180 18 15 65
40 104 57 75 31 151 96 187 160 15 28 11 25 -24 -15 -54 -61 -96 -88 -185
-117 -90 -30 -112 -45 -147 -99 -15 -25 -28 -41 -28 -35 0 18 41 76 104 148
58 67 126 184 126 217 0 8 -14 -15 -30 -50 -22 -46 -57 -91 -119 -155 -86 -89
-142 -161 -160 -208 -5 -13 -14 -36 -20 -52 l-11 -28 -50 70 -50 71 0 111 c0
145 -21 244 -75 355 -75 154 -241 322 -469 476 -102 69 -146 112 -182 181
l-14 26 52 4 c51 3 52 3 137 -71 75 -64 114 -87 300 -178 118 -57 257 -132
310 -165 52 -33 106 -64 120 -69 13 -5 22 -12 19 -14 -9 -10 -116 34 -243 99
-78 39 -166 75 -220 90 -128 34 -134 37 -220 112 -61 53 -74 61 -62 38 19 -37
93 -107 132 -127 17 -8 76 -26 130 -40 68 -17 146 -47 245 -96 166 -81 236
-102 335 -100 l70 2 -60 7 c-71 8 -109 26 -253 121 -59 39 -152 94 -207 121
-55 28 -131 72 -170 99 -72 50 -183 154 -173 164 3 3 43 16 90 30 207 60 496
204 873 434 327 200 428 273 555 400 133 134 162 184 168 297 5 89 -15 208
-49 300 -64 171 -353 485 -524 569 -116 57 -354 164 -458 206 -220 88 -375
110 -917 134 -292 12 -350 17 -455 40 -108 24 -148 27 -385 32 l-266 6 -12 49
c-6 27 -22 74 -36 106 -15 34 -32 102 -41 167 -19 135 -24 151 -92 295 -67
141 -76 196 -43 260 32 62 24 161 -22 295 -99 284 -154 412 -246 564 -146 243
-321 418 -481 481 -71 27 -112 25 -206 -14z m-81 -104 c-144 -89 -334 -195
-334 -188 0 2 42 35 93 74 62 48 141 95 237 141 80 39 149 70 154 71 5 0 -62
-44 -150 -98z m583 -189 c10 -25 12 -51 8 -83 -6 -43 -1 -58 46 -161 70 -154
109 -253 102 -259 -3 -3 -7 0 -10 6 -2 6 -40 60 -85 120 -110 148 -122 177
-123 289 -1 80 -4 98 -33 160 -18 38 -40 79 -49 90 -9 11 17 -13 56 -53 40
-41 79 -90 88 -109z m136 -165 c110 -166 140 -223 157 -298 7 -30 34 -103 60
-161 61 -134 90 -228 90 -289 0 -91 -18 -104 -45 -32 -10 26 -54 118 -97 206
-80 162 -88 194 -67 254 10 28 6 38 -41 119 -29 48 -77 121 -106 162 -42 57
-54 82 -54 110 0 20 -3 47 -7 60 -11 43 12 15 110 -131z m-584 61 c283 -85
393 -157 541 -352 79 -105 106 -156 145 -277 21 -63 48 -141 62 -174 13 -32
22 -60 20 -62 -2 -2 -20 19 -40 48 -44 66 -95 119 -217 227 -130 115 -221 172
-326 207 -80 26 -102 29 -224 29 -74 0 -150 -4 -169 -9 -50 -12 -32 6 41 42
87 43 179 57 266 42 123 -21 297 -117 416 -229 66 -63 68 -55 14 57 -60 126
-208 251 -408 345 -103 48 -281 147 -266 147 6 0 71 -18 145 -41z m86 -442
c82 -23 191 -66 365 -145 50 -22 81 -46 127 -97 125 -135 242 -331 334 -556
28 -68 53 -131 57 -139 3 -8 -11 3 -32 24 -64 63 -207 144 -376 212 -32 13
-33 13 -15 -2 11 -8 74 -48 140 -87 66 -39 146 -96 179 -126 56 -54 142 -168
133 -177 -2 -2 -24 7 -48 20 -141 79 -475 117 -713 81 -55 -8 -101 -13 -104
-11 -7 8 168 58 250 71 43 7 81 15 84 17 6 6 -98 28 -140 29 -30 1 -30 1 -6 9
33 10 259 11 330 1 30 -5 56 -7 58 -6 5 4 -121 63 -223 104 -49 20 -124 60
-165 87 -148 101 -250 140 -435 169 -116 18 -347 25 -430 12 l-50 -7 35 16
c123 55 346 72 530 40 189 -33 442 -107 644 -190 49 -20 92 -34 95 -31 6 7
-73 157 -122 230 -59 87 -181 205 -262 253 -83 48 -237 101 -390 134 -93 19
-139 23 -302 23 l-192 0 52 18 c186 63 415 72 592 24z m-886 -142 c-106 -230
-192 -448 -254 -640 -173 -544 -177 -555 -210 -555 -9 0 -8 14 6 53 10 28 37
115 60 192 68 225 224 640 288 765 95 185 146 279 148 276 2 -2 -15 -43 -38
-91z m1760 -827 c17 -27 8 -22 -30 19 -27 29 -28 32 -7 17 14 -10 31 -27 37
-36z m-729 -112 c147 -25 327 -73 468 -125 106 -39 304 -123 299 -127 -2 -2
-66 19 -143 47 -424 153 -716 207 -1043 196 -378 -13 -863 -139 -1006 -262
-100 -85 -244 -231 -289 -294 -25 -35 -46 -60 -46 -55 0 4 25 60 56 124 54
112 57 118 118 157 35 23 89 55 122 71 32 17 86 51 118 77 107 83 263 142 426
160 30 3 132 17 225 30 234 34 231 34 400 29 99 -2 199 -12 295 -28z m586 13
c121 -37 157 -61 207 -136 25 -37 52 -86 61 -108 17 -39 16 -39 -61 36 -98 95
-165 150 -239 194 -67 41 -62 43 32 14z m889 -364 c126 -22 197 -28 450 -35
272 -8 653 -34 664 -46 7 -6 -42 -4 -159 6 -149 14 -1149 35 -1635 34 -627 -1
-881 -29 -1440 -159 -375 -88 -422 -98 -693 -139 -344 -53 -902 -169 -1052
-218 -36 -11 -157 -54 -269 -95 -113 -40 -257 -88 -320 -104 -497 -132 -1065
-304 -1056 -320 3 -4 -5 -5 -17 -2 -17 3 -19 2 -10 -5 11 -7 8 -11 -10 -15
-28 -7 -207 -91 -408 -192 -74 -37 -130 -63 -125 -58 52 48 378 233 411 233 8
0 13 4 10 9 -3 5 29 18 72 30 165 44 436 143 812 296 476 193 696 267 1062
354 179 43 738 154 744 148 2 -2 -55 -21 -128 -42 -73 -21 -127 -40 -120 -43
20 -6 312 46 732 133 228 48 505 102 615 121 245 43 251 44 145 39 -71 -3 -79
-2 -45 6 239 60 804 100 1325 94 265 -3 310 -6 445 -30z m-90 -86 c88 -5 326
-9 528 -9 431 0 678 -13 794 -41 182 -45 622 -239 762 -336 188 -131 388 -361
425 -490 8 -29 13 -53 11 -53 -3 0 -20 30 -39 68 -116 230 -378 457 -711 618
-315 152 -468 179 -1090 194 -225 6 -527 15 -670 22 -756 32 -1462 -24 -2015
-162 -85 -21 -225 -48 -310 -60 -273 -38 -601 -111 -1055 -236 -427 -118 -726
-205 -870 -255 -206 -70 -230 -77 -592 -164 -175 -43 -401 -100 -503 -127
-216 -59 -235 -63 -200 -47 48 22 887 276 1200 364 91 25 262 77 380 115 497
159 942 265 1539 365 146 25 339 63 430 85 310 74 556 117 796 140 284 28 806
32 1190 9z m-1412 -533 c47 -15 170 -76 165 -82 -2 -1 -30 10 -63 26 -84 40
-173 61 -295 70 l-105 8 125 -3 c76 -2 144 -10 173 -19z m-75 -32 c101 -21
215 -66 275 -110 27 -20 47 -37 45 -40 -3 -2 -29 9 -59 25 -120 65 -319 102
-556 104 -83 1 -149 4 -147 6 2 3 30 10 62 17 84 18 288 17 380 -2z m714 -76
c38 -47 67 -100 157 -289 85 -177 151 -239 328 -305 248 -93 322 -205 343
-514 l7 -115 2 150 c2 211 -32 328 -121 417 -45 45 -78 61 -196 94 -154 42
-210 100 -324 334 -44 91 -95 186 -114 213 -19 26 -29 47 -23 47 20 0 111
-104 180 -207 77 -114 133 -175 190 -204 39 -19 180 -61 186 -55 2 2 -25 17
-61 34 -103 48 -132 77 -231 227 -51 77 -105 152 -120 168 -15 15 -24 27 -20
27 22 0 78 -57 121 -122 85 -129 134 -188 176 -209 28 -14 89 -27 192 -40 199
-25 260 -41 392 -104 123 -59 203 -124 244 -196 23 -43 22 -42 -38 22 -72 77
-153 124 -283 163 -47 14 -91 26 -97 26 -31 0 118 -123 196 -161 135 -68 296
-233 352 -363 32 -77 22 -77 -14 -1 -38 81 -92 149 -168 212 -52 43 -199 136
-205 129 -2 -1 16 -32 40 -68 58 -85 99 -188 142 -348 19 -72 42 -145 51 -163
45 -87 108 -137 229 -182 39 -15 72 -29 75 -32 11 -12 -69 11 -136 38 -134 56
-183 119 -230 297 -15 53 -27 98 -28 99 -6 8 -4 -234 4 -357 16 -245 44 -334
164 -527 115 -187 240 -321 357 -383 92 -50 164 -116 246 -225 68 -90 113
-181 119 -236 5 -41 1 -37 -47 61 -44 89 -64 117 -133 185 -79 78 -150 127
-231 161 -47 19 -45 17 57 -59 42 -32 93 -79 115 -104 50 -61 93 -126 88 -132
-3 -2 -31 20 -62 50 -61 58 -123 105 -123 94 0 -4 21 -31 48 -59 42 -47 128
-193 118 -203 -2 -2 -19 5 -37 16 -19 11 -76 31 -128 46 -52 15 -112 35 -133
45 -21 10 -38 14 -38 10 0 -18 69 -61 166 -103 54 -23 115 -54 135 -67 42 -29
109 -87 109 -95 0 -15 -305 127 -375 175 -25 17 -48 30 -50 28 -9 -9 149 -170
188 -192 23 -13 78 -36 122 -51 160 -55 182 -83 29 -40 -175 50 -211 74 -393
265 -90 94 -166 169 -168 166 -3 -3 28 -58 68 -123 78 -126 176 -235 244 -271
58 -31 26 -27 -42 5 -78 37 -138 100 -225 239 -69 110 -175 241 -161 199 13
-38 106 -190 165 -269 32 -43 57 -81 54 -83 -3 -3 -32 21 -65 52 -58 55 -159
198 -197 278 -23 48 -38 48 -18 0 51 -123 90 -180 188 -278 112 -111 178 -155
298 -197 78 -28 129 -35 383 -57 132 -12 218 -37 304 -89 67 -40 171 -127 171
-142 0 -5 -35 15 -78 44 -87 59 -205 109 -297 125 -33 6 -157 18 -275 26 -352
26 -398 43 -544 196 -91 95 -137 175 -181 309 -34 104 -50 138 -130 265 -135
216 -178 338 -199 556 l-12 134 -7 -79 c-10 -109 -8 -218 3 -301 16 -108 66
-305 103 -405 19 -50 29 -86 22 -80 -20 16 -110 207 -144 302 -65 186 -73 301
-41 568 11 91 22 190 25 220 l6 55 -24 -75 c-13 -41 -43 -120 -67 -175 -23
-55 -49 -118 -56 -140 l-14 -40 6 61 c2 34 23 124 45 200 68 232 65 360 -13
515 -49 98 -133 186 -273 284 -188 132 -199 148 -294 429 -59 172 -86 236
-124 290 -20 28 -20 28 0 18 11 -6 35 -30 55 -54z m-692 -16 c105 -37 230
-112 230 -137 0 -23 -28 -43 -91 -66 -64 -23 -74 -37 -15 -21 40 12 48 6 14
-8 -20 -8 -19 -9 12 -8 19 1 55 0 80 -2 l45 -3 -60 -7 -60 -7 65 -2 c36 -1 83
-6 105 -10 34 -7 26 -9 -48 -10 -113 -1 -203 -15 -347 -54 -102 -27 -131 -30
-255 -30 -111 0 -148 4 -180 17 -40 18 -40 18 -15 29 173 73 310 138 310 148
0 10 -45 -3 -106 -31 -27 -12 -86 -35 -131 -50 -64 -21 -83 -24 -83 -13 0 16
40 33 83 34 31 0 31 1 8 10 -59 24 -141 -13 -141 -63 0 -26 -18 -22 -70 12
-73 49 -94 37 -56 -31 14 -24 23 -46 20 -50 -7 -13 -48 3 -78 30 l-28 26 7
-32 c4 -20 3 -33 -3 -33 -18 0 -61 59 -71 98 -14 50 4 159 27 166 82 22 384
100 434 111 93 21 325 14 398 -13z m1123 -140 c83 -102 82 -102 216 -122 143
-22 220 -42 323 -86 83 -34 217 -119 283 -178 36 -33 33 -32 -36 13 -97 63
-217 123 -299 150 -36 12 -136 35 -223 51 -88 16 -173 37 -190 48 -31 17 -52
42 -127 148 -45 62 -47 68 -21 55 11 -6 45 -42 74 -79z m-2009 -49 c-18 -46
-27 -86 -27 -125 0 -32 -4 -58 -8 -58 -19 0 -69 54 -81 88 l-13 37 -5 -52 -5
-52 -44 29 c-53 36 -78 40 -36 5 39 -32 12 -34 -46 -4 -23 11 -38 16 -35 10 4
-6 43 -29 86 -52 81 -42 111 -72 44 -44 -47 20 -51 19 -23 -4 22 -18 22 -19 3
-29 -11 -6 -37 -14 -59 -18 -40 -8 -40 -8 -10 -14 29 -6 29 -6 9 -18 -26 -14
-252 -45 -297 -40 -27 3 -21 6 43 25 l75 23 -60 -7 c-53 -5 -151 -27 -210 -47
-11 -3 0 3 24 15 47 22 201 58 261 60 l35 1 -40 9 c-143 29 -293 -10 -326 -85
-8 -17 -8 -15 -3 9 7 40 39 72 78 81 27 6 28 8 11 14 -11 4 -24 4 -29 -1 -6
-5 -17 -9 -26 -9 -9 0 -36 -17 -60 -37 -30 -26 -39 -30 -28 -15 9 13 26 30 37
39 12 8 19 19 16 24 -3 5 1 6 9 3 9 -3 16 -2 16 4 0 6 12 15 28 20 24 9 24 11
5 11 -12 1 -28 -5 -35 -11 -7 -7 -20 -14 -28 -16 -15 -3 -32 -20 -62 -63 -14
-19 -16 -20 -11 -4 11 35 53 84 86 101 17 9 54 20 82 24 l50 8 -64 1 c-82 1
-131 -14 -181 -56 -22 -19 -40 -30 -40 -25 0 18 67 69 114 87 37 14 65 17 148
12 93 -4 126 -12 233 -52 11 -4 4 3 -15 16 -31 21 -33 24 -14 27 12 2 59 -6
104 -18 45 -12 84 -19 86 -17 9 8 -44 36 -100 52 -31 9 -56 20 -56 25 0 22
144 90 192 90 7 0 36 11 63 25 l50 24 -40 -6 c-40 -6 -162 -35 -200 -48 -16
-6 -17 -5 -5 4 39 28 352 115 358 99 2 -4 -9 -38 -24 -75z m1164 25 c-3 -7
-13 -15 -24 -17 -16 -3 -17 -1 -5 13 16 19 34 21 29 4z m37 -33 c-23 -8 -149
-12 -130 -4 11 4 47 8 80 8 33 -1 56 -2 50 -4z m251 -185 c-31 -148 -108 -250
-188 -250 -33 0 -125 45 -186 92 -30 22 -56 38 -58 35 -3 -2 23 -30 56 -61 34
-31 57 -56 53 -56 -5 0 -13 4 -18 9 -6 5 -42 25 -81 45 -80 40 -164 62 -289
75 -47 5 -89 12 -93 15 -10 11 20 26 53 26 17 0 62 7 100 15 158 34 201 37
265 15 78 -26 84 -25 31 7 -24 14 -60 27 -80 29 -61 5 -101 14 -101 24 0 15
37 12 71 -6 17 -8 33 -13 36 -10 3 2 -14 14 -37 26 -23 12 -39 24 -36 28 9 9
75 3 97 -9 11 -6 19 -6 19 0 0 12 82 -7 92 -22 4 -7 8 -23 8 -37 1 -24 2 -24
17 8 9 17 23 32 30 32 7 0 13 -1 13 -2 0 -2 -7 -28 -15 -58 -8 -30 -12 -56
-10 -59 8 -7 41 28 61 64 10 19 22 35 26 35 25 0 -11 -121 -49 -162 -9 -10
-13 -21 -10 -24 13 -13 65 38 96 93 l32 58 -4 -45 c-3 -25 -8 -53 -12 -62 -4
-11 -3 -18 4 -18 18 0 70 91 92 163 12 37 23 66 26 64 2 -3 -3 -37 -11 -77z
m-831 -10 c-41 -10 -146 -10 -170 0 -13 5 20 8 90 8 71 0 99 -3 80 -8z m-410
-16 c22 -15 105 -114 105 -127 0 -3 -27 5 -60 19 -80 32 -93 30 -38 -6 24 -16
53 -39 64 -51 19 -22 19 -22 -1 -15 -36 13 -129 36 -145 35 -8 0 3 -7 24 -15
46 -17 101 -57 116 -84 9 -17 7 -18 -19 -10 -45 13 -56 -4 -16 -26 19 -10 35
-20 35 -22 0 -1 -11 -15 -25 -29 -29 -33 -25 -42 9 -19 14 9 27 16 30 16 3 0
3 -24 0 -52 l-4 -53 19 40 c13 25 21 34 24 25 3 -8 10 -35 17 -60 9 -34 27
-59 74 -105 34 -33 82 -71 107 -84 43 -23 43 -23 -23 40 -80 76 -87 95 -27 74
69 -25 77 -17 21 20 -35 24 -59 50 -76 83 -23 45 -56 144 -56 166 0 16 91 50
125 47 19 -1 56 11 98 32 37 18 67 30 67 25 0 -10 -105 -63 -142 -72 -16 -3
-28 -11 -28 -16 0 -12 39 -12 98 -1 23 5 60 5 83 1 l40 -8 -20 22 c-27 29 -27
31 13 55 40 25 56 27 56 6 0 -30 41 -96 66 -105 14 -6 40 -9 57 -9 l32 1 -35
7 c-20 4 -41 11 -48 15 -15 9 -39 57 -36 74 4 27 6 26 18 -8 7 -19 24 -41 37
-48 30 -16 99 -9 115 13 13 17 64 12 64 -7 0 -6 -8 -7 -17 -4 -10 4 -14 4 -10
0 4 -4 -1 -13 -11 -21 -16 -13 -15 -14 8 -10 14 2 33 8 43 12 9 4 17 3 17 -3
0 -5 -12 -13 -27 -17 -16 -4 -23 -9 -18 -11 6 -3 33 2 60 10 27 9 51 14 52 12
13 -12 -17 -38 -60 -52 -29 -9 -56 -20 -62 -25 -12 -12 -8 -11 48 6 48 14 48
14 41 -8 -24 -81 -59 -119 -137 -152 -47 -19 -149 -19 -216 1 -65 19 -135 78
-127 108 3 11 -2 28 -11 38 -10 12 -12 18 -4 18 9 0 9 5 1 20 -6 11 -20 20
-31 20 -19 0 -19 -1 -5 -22 17 -24 22 -78 7 -78 -5 0 -28 21 -51 48 l-42 47
16 -40 c26 -62 44 -84 93 -116 26 -16 60 -44 75 -64 32 -39 66 -50 173 -60 57
-6 81 -3 130 14 32 12 75 21 95 21 52 -1 122 -19 144 -38 30 -27 66 -90 87
-150 18 -53 38 -192 27 -192 -3 0 -19 29 -37 64 -62 126 -139 170 -316 179
-92 4 -89 3 48 -28 102 -22 138 -53 166 -138 29 -88 41 -198 32 -292 -4 -44
-10 -73 -13 -65 -2 8 -17 53 -32 100 -45 139 -123 251 -209 300 -29 17 -63 30
-77 30 -22 0 -19 -4 21 -29 75 -47 119 -111 161 -231 16 -46 48 -216 48 -257
0 -8 -46 10 -112 43 l-113 56 -32 67 c-41 86 -118 188 -213 281 -80 79 -158
127 -249 154 -79 23 -84 22 -76 -16 9 -43 21 -55 30 -29 4 15 15 21 36 21 102
0 182 -137 135 -228 -9 -18 -19 -32 -21 -32 -3 0 -20 17 -39 38 -32 35 -38 37
-94 37 -54 0 -65 -4 -128 -47 -83 -57 -111 -68 -170 -68 -84 0 -148 46 -174
126 -21 61 -7 125 50 241 l52 108 -1 96 -1 95 39 60 c22 32 50 72 62 88 l23
29 -28 -7 c-25 -6 -26 -5 -16 13 5 11 15 23 20 26 15 9 12 25 -5 25 -26 0 -17
49 14 81 34 33 78 38 116 13z m392 -70 c9 -23 -16 -36 -59 -29 -23 3 -38 1
-38 -5 0 -5 -5 -10 -11 -10 -25 0 0 24 41 40 58 23 59 23 67 4z m863 -38 c0
-27 -31 -101 -53 -124 -12 -14 -40 -32 -62 -42 l-40 -17 60 -14 c96 -21 143
-18 166 10 10 13 19 19 19 13 0 -25 -52 -70 -87 -77 -32 -6 -35 -9 -18 -15 11
-5 37 -9 58 -9 48 -1 49 -21 1 -21 l-36 0 36 -40 c34 -38 36 -44 36 -108 0
-38 -3 -72 -7 -76 -4 -4 -15 13 -24 36 l-18 43 0 -45 c-1 -76 -23 -212 -32
-198 -5 7 -9 27 -9 44 0 53 -12 97 -21 82 -5 -7 -9 -23 -9 -36 0 -13 -8 -55
-17 -95 l-16 -72 -14 65 c-19 92 -66 183 -116 224 -55 45 -83 55 -174 63 l-74
6 22 23 c19 20 32 24 83 24 34 -1 97 -7 141 -15 43 -8 81 -13 83 -11 5 6 -116
34 -193 46 l-71 11 28 82 c15 45 28 82 28 83 0 0 29 -5 65 -11 55 -11 64 -11
54 1 -6 8 -28 18 -49 24 -21 6 -44 18 -51 27 -13 15 -11 16 11 10 92 -26 121
-27 171 -6 35 15 57 34 79 67 16 25 30 49 30 54 0 4 5 8 10 8 6 0 10 -6 10
-14z m-1641 -13 c0 -5 -60 -37 -132 -73 -73 -36 -151 -78 -175 -95 -36 -24
-45 -27 -52 -15 -13 20 -13 93 0 85 6 -3 10 -12 10 -20 0 -20 21 -30 31 -14 5
8 9 24 9 37 0 27 16 29 25 2 8 -24 18 -25 36 -4 15 19 99 58 179 85 63 21 70
22 69 12z m-715 -95 c-4 -40 -13 -85 -21 -100 -16 -32 -27 -37 -18 -8 9 30 -2
24 -19 -9 -10 -19 -41 -42 -98 -71 -46 -24 -96 -52 -113 -63 -56 -38 -5 8 83
73 97 73 157 145 173 208 6 23 13 42 15 42 2 0 1 -33 -2 -72z m804 50 c7 -7
12 -18 12 -25 0 -11 -6 -10 -30 2 -17 9 -28 20 -25 25 8 14 29 12 43 -2z
m1602 -33 c0 -64 -31 -95 -97 -95 l-48 0 43 21 c32 16 49 34 68 70 13 27 27
49 29 49 3 0 5 -20 5 -45z m-1642 -10 c20 -13 52 -29 70 -36 17 -6 32 -15 32
-21 0 -5 -3 -8 -7 -6 -112 52 -141 67 -147 77 -12 19 12 12 52 -14z m-108 -35
c0 -11 -6 -20 -14 -20 -18 0 -29 16 -21 30 11 18 35 11 35 -10z m1959 -46 c22
-25 65 -95 96 -155 30 -59 60 -111 65 -114 5 -3 18 11 29 32 19 35 20 36 21
12 1 -77 -43 -116 -113 -100 l-39 9 8 -51 c8 -62 9 -58 -9 -128 -21 -84 -30
-225 -17 -289 10 -52 16 -59 110 -148 137 -128 247 -298 283 -435 19 -70 5
-66 -18 6 -17 51 -114 232 -121 225 -5 -6 26 -120 42 -150 8 -15 27 -42 42
-60 16 -18 32 -42 36 -52 6 -17 5 -17 -11 -5 -15 13 -16 12 -9 -6 34 -86 61
-180 87 -300 35 -167 63 -229 159 -350 l71 -90 -58 60 c-32 33 -71 76 -86 95
l-27 35 11 -40 c6 -22 18 -53 26 -68 8 -16 13 -31 10 -33 -13 -14 -74 165
-132 389 -10 37 -19 66 -20 65 -8 -12 17 -375 30 -423 8 -33 47 -123 85 -200
86 -174 109 -239 117 -335 6 -91 -19 -178 -74 -252 -39 -54 -56 -65 -23 -15
56 85 76 176 61 278 -13 81 -31 130 -104 276 -109 219 -119 261 -122 488 -1
104 -8 212 -16 255 l-14 75 -6 -90 c-4 -56 -17 -124 -35 -180 -34 -109 -39
-241 -10 -344 25 -91 13 -86 -18 7 -30 89 -33 141 -22 322 7 101 5 138 -8 192
-16 69 -76 201 -97 214 -14 8 -11 -12 22 -161 32 -141 33 -339 1 -407 -19 -42
-22 -73 -28 -255 -6 -177 -4 -218 10 -273 17 -66 53 -149 101 -230 l26 -45
-26 30 c-115 133 -163 298 -145 500 15 161 12 228 -10 285 -11 28 -27 109 -35
182 -30 251 -78 352 -321 666 -76 97 -142 183 -147 190 -6 7 -6 12 0 12 29 0
283 -264 376 -390 28 -39 -122 251 -202 389 -39 68 -70 125 -68 127 1 2 67
-64 145 -146 78 -82 142 -148 142 -146 0 3 -49 105 -109 228 -60 123 -108 224
-106 226 1 2 33 -32 71 -75 38 -43 89 -96 113 -118 l43 -40 -17 40 c-21 50
-144 345 -152 365 -3 8 12 -5 33 -30 64 -74 114 -124 119 -118 3 3 -18 59 -46
124 -28 65 -57 135 -66 154 -13 32 -8 29 56 -35 39 -38 71 -67 71 -63 0 17
-91 260 -114 306 -33 65 -22 66 24 4 55 -76 122 -153 127 -148 8 7 -37 137
-62 181 -13 22 -37 53 -54 69 -17 17 -31 34 -31 38 0 16 38 -12 79 -58z
m-1851 5 c2 -11 -8 -21 -30 -28 -26 -9 -30 -9 -20 1 6 6 12 20 12 31 0 23 33
19 38 -4z m-442 -23 l21 -33 -22 -37 -23 -37 1 43 c1 24 -2 55 -7 71 -11 37 4
33 30 -7z m283 -25 c38 -13 85 -15 78 -3 -3 4 7 8 21 8 15 1 47 5 71 9 35 6
43 5 39 -6 -2 -7 -20 -18 -39 -23 -29 -8 -31 -10 -11 -14 25 -4 29 -32 11 -95
-7 -28 -23 -47 -56 -70 -33 -24 -54 -50 -80 -102 -36 -73 -35 -75 10 -14 14
20 44 51 66 69 l41 31 -14 -39 c-23 -64 -45 -102 -112 -193 -35 -48 -79 -119
-97 -158 l-34 -72 -12 55 c-12 54 -56 151 -87 191 -15 20 -15 20 -35 -5 -11
-14 -34 -52 -50 -85 -38 -77 -29 -25 10 61 l28 61 -41 19 c-32 15 -42 25 -44
47 -4 36 20 64 66 77 30 8 43 6 80 -12 55 -28 59 -34 30 -59 l-23 -20 33 16
c23 11 46 14 80 9 39 -5 52 -2 72 14 l25 20 -61 -5 c-61 -6 -62 -5 -108 37
-25 24 -49 54 -52 67 -9 33 13 56 45 49 24 -6 24 -5 6 5 -11 7 -21 13 -23 14
-1 1 2 14 9 27 10 22 16 25 52 21 23 -3 58 0 77 5 34 10 33 10 -22 11 -60 1
-138 26 -138 43 0 6 13 8 33 4 17 -4 64 -9 102 -11 l70 -5 -40 19 c-22 10 -46
29 -54 42 -13 23 -13 23 15 -2 16 -15 44 -31 63 -38z m-689 -72 c-19 -17 -64
-46 -99 -66 -136 -77 -268 -191 -322 -278 -11 -16 -19 -25 -19 -19 0 27 88
140 146 188 35 29 105 75 156 103 51 29 108 63 127 77 47 35 54 32 11 -5z
m505 11 c6 -20 -21 -90 -35 -90 -14 0 -18 40 -7 75 11 39 32 46 42 15z m2554
-168 c1 -41 -21 -100 -41 -113 -5 -3 -2 -9 7 -12 11 -5 22 4 36 28 12 19 22
35 24 35 10 0 -22 -86 -61 -165 -67 -139 -133 -205 -189 -191 -44 11 -68 115
-45 198 9 30 17 39 48 49 35 11 145 79 129 79 -4 0 -29 -11 -55 -24 -75 -38
-88 -40 -111 -17 -31 31 -26 41 22 41 73 0 164 76 195 163 l17 49 12 -39 c6
-21 12 -57 12 -81z m-2616 85 c3 -9 -11 -22 -39 -35 -60 -30 -64 -28 -24 13
36 37 55 43 63 22z m1255 -9 c23 -7 42 -16 42 -21 0 -5 -7 -6 -16 -3 -9 3 -24
6 -34 6 -10 0 -28 9 -41 21 -13 11 -17 18 -9 15 8 -3 34 -11 58 -18z m297 13
c-32 -30 -93 -51 -145 -50 l-55 2 63 8 c35 4 78 17 95 28 34 20 58 28 42 12z
m1882 -69 c17 2 29 0 27 -4 -15 -24 -134 12 -134 42 0 5 17 -2 38 -16 25 -18
47 -24 69 -22z m-3419 12 c2 -16 -7 -23 -50 -37 -28 -9 -53 -15 -55 -13 -7 7
79 77 90 73 7 -2 13 -12 15 -23z m-592 -47 c-95 -60 -147 -121 -172 -200 -7
-23 -13 -34 -13 -25 -2 35 40 125 71 155 18 18 53 43 78 57 45 26 71 35 36 13z
m173 -33 c-18 -20 -65 -52 -104 -71 -111 -56 -144 -96 -155 -188 l-6 -50 -8
36 c-19 91 47 184 161 227 34 13 78 36 99 53 50 39 55 37 13 -7z m11 -81 c-72
-197 -139 -283 -278 -359 -37 -20 -98 -54 -136 -75 -91 -51 -66 -24 69 76 190
141 233 187 306 329 35 69 65 123 67 121 2 -2 -11 -43 -28 -92z m126 -362
c-21 -122 -48 -197 -121 -346 -62 -126 -168 -320 -187 -340 -5 -5 10 31 33 80
133 290 249 651 265 824 10 121 19 117 22 -8 2 -77 -3 -156 -12 -210z m121
174 c7 -104 -30 -289 -81 -406 -19 -45 -34 -84 -32 -86 3 -4 56 82 103 167 17
30 39 80 48 110 26 80 30 44 6 -51 -40 -157 -142 -330 -347 -589 -192 -243
-203 -265 -314 -656 -39 -140 -143 -217 -348 -260 -148 -30 -170 -38 -262 -85
-91 -47 -153 -107 -180 -175 -17 -41 -19 -44 -14 -14 14 78 81 174 161 233 27
19 108 67 181 105 204 108 263 165 323 317 48 120 116 253 164 321 52 73 91
108 53 48 -56 -89 -113 -216 -160 -358 -27 -82 -58 -166 -68 -186 -21 -42 -76
-91 -127 -115 -18 -9 -33 -18 -33 -20 0 -7 75 17 115 37 104 53 138 101 210
298 77 209 113 287 201 438 245 416 356 702 371 951 7 121 21 110 30 -24z
m1340 -110 l69 -111 -90 34 c-50 18 -96 35 -103 37 -8 2 -5 16 9 44 11 22 22
59 25 81 3 23 9 38 13 33 4 -4 39 -58 77 -118z m-1551 7 c-69 -273 -209 -511
-376 -640 -45 -35 -153 -90 -245 -126 -82 -31 -101 -34 -218 -38 -71 -2 -130
-1 -132 2 -6 10 57 27 165 44 185 30 369 97 469 171 119 86 251 330 328 599
14 53 28 94 30 92 3 -2 -7 -49 -21 -104z m3884 -22 c83 -33 114 -61 180 -170
39 -63 85 -121 126 -159 36 -34 61 -61 56 -61 -47 0 -405 311 -459 398 -31 50
-29 57 10 34 17 -11 57 -30 87 -42z m-2620 11 c0 -5 -5 -11 -12 -13 -6 -2 27
-21 75 -41 108 -47 132 -54 87 -27 l-35 21 35 -6 c19 -3 93 -30 165 -61 154
-66 567 -265 561 -271 -2 -2 -31 3 -64 11 -83 22 -92 20 -39 -9 26 -13 75 -48
110 -77 34 -29 104 -84 155 -122 50 -38 90 -71 88 -73 -7 -7 -278 100 -313
124 -19 13 -37 23 -38 21 -11 -10 259 -266 354 -336 62 -46 109 -77 105 -70
-14 26 -80 104 -144 172 -39 41 -57 66 -45 63 47 -15 190 -45 194 -42 2 2 -12
17 -30 32 -61 49 -254 242 -248 247 3 4 20 1 38 -5 46 -16 47 -6 3 22 -25 16
-49 46 -74 94 -21 39 -38 74 -38 79 0 5 33 -22 73 -60 39 -38 111 -102 159
-141 47 -40 102 -92 122 -116 173 -212 214 -493 132 -917 -14 -69 -30 -170
-36 -225 -9 -90 -8 -108 10 -177 11 -42 25 -89 31 -104 23 -63 -6 -10 -38 68
-26 65 -35 102 -40 173 -3 50 -9 110 -13 135 l-7 45 -7 -60 c-4 -33 -13 -78
-18 -100 -10 -37 -12 -38 -17 -15 -4 14 -10 20 -14 14 -10 -17 12 -82 63 -184
139 -277 180 -509 145 -822 -23 -205 -18 -356 13 -415 49 -94 117 -146 222
-169 l55 -12 -57 -1 c-120 -2 -228 65 -279 172 l-27 58 -19 -53 c-26 -75 -26
-268 0 -318 l18 -35 -26 30 c-59 70 -73 207 -40 395 21 121 21 312 0 455 -29
194 -31 191 -39 -40 -4 -121 -11 -267 -14 -325 l-7 -105 -14 185 c-7 102 -14
186 -16 188 -8 9 -40 -324 -40 -423 0 -99 4 -132 23 -187 54 -157 182 -266
376 -319 l71 -20 -65 6 c-279 23 -464 176 -501 415 -15 99 -7 221 32 470 28
184 31 220 26 355 -3 88 -12 173 -21 205 -14 51 -15 52 -8 10 4 -25 7 -110 7
-190 -1 -121 -5 -158 -24 -224 -25 -88 -107 -296 -122 -310 -20 -21 -10 202
15 312 33 147 46 249 44 345 0 45 -3 66 -5 47 -13 -128 -28 -213 -59 -336 -28
-109 -36 -160 -38 -237 -1 -97 -1 -98 -14 -55 -35 121 -34 274 3 547 40 297 6
452 -127 576 l-42 40 43 -48 c130 -147 140 -306 36 -637 -100 -322 -90 -401
95 -710 56 -94 113 -199 127 -233 34 -82 42 -197 18 -286 -32 -124 -154 -332
-265 -451 l-51 -55 51 65 c169 215 235 368 228 529 -4 107 -29 164 -149 332
-103 144 -109 150 -65 61 86 -172 123 -347 111 -525 -4 -54 -9 -96 -11 -94 -2
2 -9 64 -14 138 -5 74 -13 157 -17 184 -7 50 -7 50 -14 -32 -5 -73 -13 -96
-58 -187 -29 -57 -59 -110 -68 -118 -12 -10 -11 -4 5 27 40 80 62 166 62 245
0 120 -31 172 -205 345 -153 152 -189 199 -241 308 -38 82 -42 84 -15 6 27
-80 77 -175 136 -259 73 -105 102 -166 130 -273 27 -104 51 -255 41 -264 -3
-4 -6 3 -6 13 0 38 -42 144 -79 201 -21 32 -84 112 -141 178 -56 66 -116 144
-132 173 -17 29 -33 51 -35 48 -12 -12 95 -189 242 -398 65 -93 75 -139 52
-234 -14 -55 -95 -239 -103 -232 -1 2 11 41 27 88 32 95 37 166 14 210 -8 16
-43 53 -78 81 -70 58 -133 129 -185 207 -19 28 -36 52 -38 52 -1 0 6 -30 17
-67 28 -98 57 -259 59 -328 4 -99 2 -105 -21 -62 -28 53 -34 41 -9 -17 32 -70
50 -171 49 -271 l0 -90 -24 101 c-29 126 -60 205 -143 363 -36 68 -71 149 -79
180 -25 109 -12 272 33 385 8 21 13 40 11 43 -7 6 -53 -116 -72 -188 -24 -89
-22 -199 3 -274 11 -33 52 -121 90 -195 87 -170 107 -246 100 -399 -3 -58 -10
-117 -16 -131 -7 -18 -8 -2 -4 62 10 178 -31 280 -173 429 -110 114 -124 147
-132 305 -7 138 7 181 111 338 76 114 147 254 146 288 -1 7 -14 -14 -29 -47
-30 -65 -85 -141 -175 -245 -31 -36 -73 -98 -93 -138 -32 -64 -37 -85 -41
-160 -5 -102 16 -205 54 -269 32 -55 23 -56 -14 0 -34 51 -67 128 -86 199
l-13 53 -8 -92 c-9 -116 -1 -189 36 -330 16 -62 29 -126 29 -143 0 -24 -110
-324 -116 -317 -1 1 5 31 13 67 8 36 15 110 15 165 1 90 -3 111 -36 205 -70
201 -70 365 -1 578 42 129 85 205 187 326 100 118 132 181 126 251 -2 28 -12
62 -21 75 -16 23 -16 22 -11 -27 11 -85 -6 -114 -146 -258 -174 -179 -230
-259 -393 -560 -182 -336 -182 -471 -4 -900 72 -173 80 -278 38 -485 l-18 -85
0 140 c-1 199 -14 244 -138 488 -57 111 -115 240 -129 286 -32 101 -43 235
-27 341 5 41 13 91 15 110 3 19 -1 10 -9 -20 -47 -177 -43 -333 15 -476 17
-42 29 -78 27 -80 -5 -6 -114 227 -123 261 -3 17 -13 77 -20 135 l-13 105 5
-105 c7 -122 17 -181 89 -505 69 -309 78 -372 73 -492 -3 -87 -8 -108 -35
-164 -19 -38 -53 -84 -85 -114 l-52 -50 48 53 c68 75 99 148 104 247 3 55 -1
92 -11 120 -8 22 -43 114 -77 205 -35 91 -84 226 -111 300 -56 159 -63 161
-15 6 47 -153 59 -223 54 -313 -9 -145 -70 -264 -207 -406 -78 -81 -245 -207
-274 -207 -7 0 8 12 33 27 68 39 173 127 222 183 150 174 182 347 107 576 -18
53 -38 98 -45 101 -24 9 -157 -88 -191 -141 -42 -62 -43 -42 -2 35 30 55 94
125 147 159 l23 15 -35 75 c-92 194 -68 395 85 719 66 141 47 117 -30 -35 -88
-175 -122 -286 -129 -410 -5 -108 6 -181 40 -248 11 -21 15 -35 8 -31 -6 3
-26 38 -45 76 -90 177 -86 325 11 491 25 42 49 91 55 110 5 18 13 121 19 228
11 235 28 310 104 463 30 59 53 107 51 107 -1 0 -19 -27 -39 -60 -106 -172
-235 -482 -286 -691 -47 -190 -52 -373 -14 -539 4 -18 3 -21 -4 -10 -34 53
-77 343 -68 450 3 36 4 61 2 55 -24 -61 -88 -295 -95 -345 -12 -88 2 -170 44
-250 l34 -65 -49 52 c-70 76 -93 143 -88 258 4 76 11 106 46 194 23 58 40 106
38 108 -6 6 -74 -151 -90 -207 -46 -162 -59 -389 -31 -537 8 -43 15 -80 15
-83 0 -14 -45 72 -63 120 -16 43 -20 80 -20 165 -1 119 19 210 68 321 14 31
24 59 21 61 -6 7 -74 -161 -95 -237 -25 -91 -28 -214 -5 -291 20 -70 77 -174
147 -273 31 -43 70 -106 86 -140 34 -71 61 -193 60 -268 l-1 -53 -14 65 c-20
95 -74 195 -151 284 -200 231 -253 336 -253 501 0 140 33 217 203 480 125 192
175 279 218 379 34 79 33 95 -1 33 -39 -71 -120 -188 -184 -267 -197 -244
-237 -297 -269 -358 -51 -97 -67 -162 -67 -266 0 -98 8 -135 66 -296 48 -136
56 -228 25 -328 -22 -73 -81 -170 -128 -212 l-28 -25 26 30 c65 75 99 170 99
276 0 86 -28 174 -85 269 -63 104 -78 161 -72 274 9 172 55 268 283 581 235
322 294 419 384 635 105 248 200 371 395 503 54 37 95 67 91 67 -24 0 -179
-104 -243 -164 -87 -81 -150 -165 -216 -291 -49 -93 -52 -81 -9 40 67 190 215
432 386 630 33 39 50 61 37 50 -39 -33 -179 -204 -246 -300 -114 -162 -196
-318 -240 -453 -9 -29 -19 -52 -21 -49 -5 5 77 295 117 411 60 173 162 394
266 574 14 23 22 42 20 42 -8 0 -135 -226 -199 -355 -113 -225 -195 -432 -259
-652 -62 -213 -150 -346 -290 -439 -110 -73 -205 -196 -315 -410 -64 -124 -70
-133 -50 -78 62 174 173 412 233 500 15 23 76 94 135 157 59 64 117 134 128
157 11 22 28 86 36 143 33 210 82 351 178 511 35 58 62 106 60 106 -10 0 -98
-147 -143 -237 -66 -132 -90 -206 -107 -337 -15 -119 -37 -198 -59 -216 -10
-9 -10 -3 1 30 8 22 19 95 24 163 19 216 57 393 115 522 14 32 25 60 25 63 0
3 -24 -34 -53 -84 -71 -119 -178 -278 -270 -397 -71 -93 -255 -307 -264 -307
-7 0 8 22 48 70 55 67 128 180 209 325 159 282 311 497 448 633 l95 95 -139
-111 c-76 -60 -220 -181 -319 -267 -99 -87 -209 -181 -245 -210 -66 -52 -215
-155 -224 -155 -3 0 79 86 182 191 182 187 270 270 481 454 108 94 251 252
318 351 22 33 70 118 106 191 37 72 109 204 162 293 53 89 94 164 93 166 -2 2
-22 -19 -43 -46 -34 -43 -134 -133 -199 -180 -21 -14 -21 -14 -5 10 8 14 45
75 82 135 42 70 89 133 131 175 36 35 66 68 66 72 0 5 -17 0 -38 -11 -41 -21
-148 -51 -178 -51 -11 0 3 12 30 26 111 57 174 111 322 281 102 117 231 243
249 243 2 0 -2 -15 -9 -32 -25 -61 -28 -86 -6 -46 24 44 147 171 154 159 6 -9
-36 -70 -61 -88 -29 -22 -6 -25 35 -4 22 11 51 34 66 51 33 40 33 29 -1 -29
-14 -25 -20 -41 -12 -36 8 6 33 24 57 39 23 16 52 44 63 63 12 19 34 39 50 45
15 5 40 25 54 44 21 27 33 34 61 34 18 0 34 -4 34 -9z m1771 -336 c22 -66 76
-235 120 -375 47 -146 95 -282 115 -317 19 -35 88 -131 152 -215 141 -183 183
-245 116 -168 -27 30 -66 73 -87 95 l-38 40 45 -91 c53 -108 72 -191 58 -255
l-10 -44 -1 55 c-2 113 -44 220 -149 380 -31 47 -78 126 -105 175 -52 96 -54
77 -6 -44 16 -41 28 -76 26 -78 -7 -7 -66 134 -107 258 -54 163 -148 522 -205
779 -10 42 34 -68 76 -195z m1102 -323 c291 -175 324 -209 386 -405 39 -123
39 -144 0 -81 -41 64 -149 202 -185 235 -16 15 -72 55 -124 90 -93 61 -191
151 -260 239 -46 58 -36 54 183 -78z m251 -111 c54 -42 82 -74 109 -128 31
-60 17 -68 -15 -10 -19 34 -59 84 -96 118 -74 68 -73 78 2 20z m-1704 -903
c18 -51 61 -167 96 -256 35 -90 64 -167 64 -170 -1 -4 -48 88 -105 203 -93
186 -105 216 -105 263 0 28 4 52 9 52 4 0 23 -42 41 -92z m105 -443 c113 -270
111 -272 -21 -17 -113 215 -154 312 -153 362 1 31 7 23 54 -75 29 -60 83 -182
120 -270z m1812 334 c38 -23 69 -43 71 -44 2 -2 -25 0 -60 2 -82 7 -191 -22
-315 -83 -98 -49 -102 -54 -82 -112 l10 -30 62 18 c34 9 107 32 162 49 314
100 662 160 814 140 166 -20 408 -165 586 -350 l60 -62 -83 72 c-172 149 -282
215 -421 253 -114 31 -377 31 -556 -1 -318 -56 -558 -132 -798 -253 -185 -93
-399 -190 -404 -184 -2 2 36 25 84 52 116 63 240 143 336 217 l77 59 0 57 0
57 113 52 c61 29 141 70 177 91 36 22 73 40 82 40 10 1 48 -18 85 -40z m-352
-27 c-138 -68 -278 -149 -525 -307 -221 -141 -505 -310 -685 -408 -141 -77
-295 -151 -299 -145 -2 2 -1 33 2 69 l4 66 82 33 c119 49 417 199 701 355 320
174 582 304 715 355 58 22 110 39 115 40 6 0 -44 -26 -110 -58z m-5468 -209
c-3 -10 -5 -4 -5 12 0 17 2 24 5 18 2 -7 2 -21 0 -30z m442 -190 c-25 -27 -97
-104 -159 -173 -62 -69 -127 -135 -144 -148 -41 -31 -106 -64 -106 -54 0 16
99 168 138 213 22 25 66 65 96 89 54 41 191 119 211 120 5 0 -11 -21 -36 -47z
m170 -139 c-107 -112 -309 -248 -483 -326 -244 -109 -338 -195 -436 -401 -27
-56 -65 -151 -86 -210 -20 -59 -38 -106 -40 -104 -6 5 49 197 86 302 44 123
114 256 161 305 59 61 133 104 302 176 198 85 346 163 444 235 43 31 80 58 82
58 3 1 -11 -15 -30 -35z m3431 -502 l65 -7 -47 -13 c-26 -6 -65 -12 -87 -12
-38 0 -41 2 -41 26 0 23 3 25 23 19 12 -4 51 -10 87 -13z m28 -92 c66 -9 185
-1 247 16 15 4 17 3 5 -4 -36 -23 -291 -71 -377 -72 -8 0 -13 15 -13 41 0 41
0 41 33 35 17 -4 65 -11 105 -16z m-1978 -380 c-11 -41 -25 -124 -31 -185 -10
-99 -16 -119 -56 -195 l-43 -85 5 65 c6 72 -5 61 -31 -35 -31 -114 -12 -221
57 -312 l42 -56 -33 19 c-47 28 -109 99 -132 152 -45 101 -35 207 34 347 33
68 202 365 205 361 1 -1 -7 -35 -17 -76z m-1520 -214 c0 -2 -8 -10 -17 -17
-16 -13 -17 -12 -4 4 13 16 21 21 21 13z m-97 -118 c-36 -45 -80 -112 -97
-148 -29 -61 -31 -72 -31 -180 0 -108 2 -119 31 -180 17 -36 46 -80 65 -99 23
-22 26 -29 11 -20 -27 17 -84 100 -101 148 -57 169 -20 320 119 489 33 39 63
72 65 72 3 0 -25 -37 -62 -82z m1800 0 c8 -29 21 -82 27 -117 17 -96 66 -182
125 -221 17 -11 25 -20 19 -20 -21 0 -94 60 -118 97 -37 55 -66 147 -74 236
-5 42 -5 77 -2 77 4 0 14 -24 23 -52z m-650 -489 c14 -41 27 -99 31 -129 l5
-55 -15 40 c-17 44 -64 221 -64 239 1 20 18 -19 43 -95z m1597 -2 c0 -2 -17
-19 -37 -38 l-38 -34 34 38 c33 34 41 42 41 34z"/>
<path d="M1398 6373 c7 -3 16 -2 19 1 4 3 -2 6 -13 5 -11 0 -14 -3 -6 -6z"/>
<path d="M7006 6199 c69 -101 156 -279 179 -369 26 -95 22 -241 -10 -465 -33
-228 -31 -345 5 -475 l24 -85 10 38 c5 20 12 37 15 36 3 0 36 -47 74 -104 72
-111 361 -479 418 -532 31 -29 169 -113 186 -113 4 0 -5 12 -19 28 -47 50
-308 402 -390 525 -169 255 -192 349 -203 842 -7 342 -21 398 -135 552 -49 65
-91 107 -173 175 -38 31 -38 30 19 -53z"/>
<path d="M6550 6265 c0 -3 13 -11 29 -20 31 -16 79 -22 236 -29 91 -4 97 -4
70 9 -20 9 -69 14 -148 15 -79 0 -129 5 -152 14 -19 8 -35 13 -35 11z"/>
<path d="M7016 6065 c34 -98 38 -127 38 -295 1 -96 -5 -241 -12 -321 -14 -156
-7 -293 23 -456 17 -90 54 -218 61 -210 2 2 -3 46 -12 98 -23 126 -23 385 0
604 12 108 16 200 12 252 -7 93 -42 212 -87 293 -16 30 -27 46 -23 35z"/>
<path d="M6992 5015 c0 -16 2 -22 5 -12 2 9 2 23 0 30 -3 6 -5 -1 -5 -18z"/>
<path d="M7002 4950 c0 -14 2 -19 5 -12 2 6 2 18 0 25 -3 6 -5 1 -5 -13z"/>
<path d="M7010 4914 c0 -24 50 -182 79 -248 30 -67 135 -236 146 -236 3 0 -8
21 -25 46 -45 64 -127 240 -166 353 -18 53 -33 91 -34 85z"/>
<path d="M5033 6665 c-68 -12 -208 -54 -201 -60 2 -1 46 8 98 22 148 38 348
41 510 8 14 -2 5 2 -19 10 -45 15 -215 36 -280 34 -20 0 -68 -7 -108 -14z"/>
<path d="M5597 6588 c-19 -46 -57 -54 -57 -14 0 14 -4 28 -10 31 -5 3 -10 0
-10 -8 0 -24 -27 -39 -80 -43 -49 -4 -166 -42 -157 -51 3 -2 14 0 25 6 11 6
41 15 68 21 27 5 60 13 72 15 31 7 20 -10 -22 -37 -17 -11 -22 -17 -11 -13 19
6 55 15 146 37 27 6 40 16 49 38 7 16 10 35 7 42 -2 7 -11 -4 -20 -24z"/>
<path d="M5325 6571 c-27 -10 -67 -28 -87 -39 -20 -12 -55 -31 -78 -42 -23
-12 -40 -24 -37 -26 3 -3 19 2 35 10 46 24 217 83 260 91 20 3 44 10 52 15 28
18 -93 10 -145 -9z"/>
<path d="M5508 6453 c6 -2 18 -2 25 0 6 3 1 5 -13 5 -14 0 -19 -2 -12 -5z"/>
<path d="M5448 6443 c7 -3 16 -2 19 1 4 3 -2 6 -13 5 -11 0 -14 -3 -6 -6z"/>
<path d="M5380 6430 c-20 -6 -21 -8 -5 -8 11 0 29 3 40 8 25 11 -1 11 -35 0z"/>
<path d="M5313 6413 c9 -2 23 -2 30 0 6 3 -1 5 -18 5 -16 0 -22 -2 -12 -5z"/>
<path d="M5198 6403 c7 -3 16 -2 19 1 4 3 -2 6 -13 5 -11 0 -14 -3 -6 -6z"/>
<path d="M3933 6293 c9 -2 25 -2 35 0 9 3 1 5 -18 5 -19 0 -27 -2 -17 -5z"/>
<path d="M5652 6350 c12 -17 24 -27 26 -21 4 13 -19 45 -36 49 -7 1 -3 -11 10
-28z"/>
<path d="M5275 6030 c17 -4 41 -8 55 -8 22 0 22 1 -5 8 -16 4 -41 8 -55 8 -22
0 -22 -1 5 -8z"/>
<path d="M5373 6013 c9 -2 23 -2 30 0 6 3 -1 5 -18 5 -16 0 -22 -2 -12 -5z"/>
<path d="M5318 5983 c6 -2 18 -2 25 0 6 3 1 5 -13 5 -14 0 -19 -2 -12 -5z"/>
<path d="M5368 5973 c6 -2 18 -2 25 0 6 3 1 5 -13 5 -14 0 -19 -2 -12 -5z"/>
<path d="M5417 5913 c18 -2 50 -2 70 0 21 2 7 4 -32 4 -38 0 -55 -2 -38 -4z"/>
<path d="M4790 5654 c1 -17 60 -79 60 -63 0 8 -13 28 -30 44 -16 16 -30 25
-30 19z"/>
<path d="M5765 5910 c17 -4 41 -8 55 -8 23 -1 23 0 5 8 -11 5 -36 8 -55 8
l-35 0 30 -8z"/>
<path d="M6369 5073 c21 -32 69 -105 106 -162 36 -57 74 -111 82 -120 15 -14
16 -13 9 14 -4 17 -22 64 -39 105 -24 59 -46 90 -102 148 -39 39 -76 72 -83
72 -7 0 5 -26 27 -57z"/>
<path d="M6480 4776 c23 -66 53 -147 66 -180 14 -34 32 -94 40 -135 8 -41 17
-77 20 -80 13 -13 -5 217 -20 266 -17 50 -103 203 -132 233 -8 8 3 -37 26
-104z"/>
<path d="M6651 4630 c0 -33 1 -34 10 -11 6 16 6 28 -1 35 -7 7 -10 -1 -9 -24z"/>
<path d="M4399 5873 l-24 -28 28 24 c25 23 32 31 24 31 -2 0 -14 -12 -28 -27z"/>
<path d="M4153 5833 c4 -3 25 -9 47 -13 23 -4 38 -4 33 0 -9 9 -88 22 -80 13z"/>
<path d="M5082 5020 c10 -32 69 -60 122 -59 28 1 40 3 26 6 -14 2 -39 6 -57 9
-18 2 -47 17 -64 32 -18 15 -30 20 -27 12z"/>
<path d="M4636 4954 c-26 -49 -97 -124 -117 -124 -4 0 3 19 16 43 14 23 25 53
24 67 0 21 -2 19 -13 -11 -14 -40 -43 -85 -74 -112 -20 -18 -20 -18 -6 23 8
23 17 63 20 89 4 43 3 42 -15 -19 -10 -36 -33 -118 -51 -183 -18 -64 -35 -116
-37 -114 -1 2 1 37 7 78 18 140 8 154 -15 21 -12 -73 -25 -136 -29 -139 -7 -7
-10 3 -26 80 -6 32 -13 57 -14 55 -2 -2 0 -82 3 -178 6 -162 9 -179 25 -109 9
41 166 271 166 243 0 -3 -19 -44 -42 -90 -23 -46 -38 -87 -34 -92 5 -4 36 24
70 62 150 169 180 196 219 196 20 0 54 -7 76 -16 30 -12 44 -13 60 -5 34 19
136 24 203 12 80 -16 151 -54 194 -105 19 -22 34 -36 34 -32 0 14 -32 71 -53
94 -17 18 -18 22 -5 22 25 0 75 -47 106 -99 l27 -46 8 77 c11 98 -1 142 -55
203 -40 45 -113 89 -130 79 -4 -3 -1 -21 7 -41 8 -19 15 -38 15 -41 0 -3 -25
21 -55 54 l-56 59 32 -63 c17 -35 29 -65 26 -68 -12 -12 -47 9 -87 52 -23 25
-43 44 -46 42 -2 -2 12 -30 31 -61 19 -31 30 -57 25 -57 -6 0 -37 25 -70 55
-56 52 -94 75 -123 75 -6 0 10 -13 35 -29 25 -16 55 -43 67 -60 25 -35 18 -41
-13 -12 -28 25 -136 93 -136 86 0 -4 12 -27 27 -53 l28 -47 -30 19 c-64 40
-85 67 -85 109 l0 40 -30 -60 c-17 -34 -42 -68 -55 -77 -29 -19 -32 -11 -7 18
16 19 16 19 -18 -1 -19 -12 -58 -31 -85 -43 l-50 -21 41 38 c36 33 112 159
102 168 -2 2 -16 -21 -32 -51z"/>
<path d="M5413 4898 c78 -110 119 -202 131 -293 2 -16 2 3 1 43 -4 83 -40 172
-95 235 -35 40 -62 51 -37 15z"/>
<path d="M4177 4751 c-80 -69 -93 -82 -52 -53 35 24 132 111 125 111 -3 0 -36
-26 -73 -58z"/>
<path d="M5404 4675 c3 -38 6 -106 7 -150 l1 -80 14 50 c21 72 15 208 -10 232
-18 18 -18 16 -12 -52z"/>
<path d="M4547 4581 c-15 -23 -49 -65 -76 -94 -26 -30 -63 -76 -81 -103 l-33
-49 43 40 c38 36 41 37 35 15 -4 -14 -34 -81 -65 -150 -94 -204 -152 -336
-141 -325 19 20 353 685 349 696 -2 6 -16 -7 -31 -30z"/>
<path d="M5129 4570 c47 -74 83 -162 99 -241 13 -70 14 -97 4 -187 -7 -58 -10
-107 -8 -109 2 -2 11 37 21 87 20 102 17 209 -8 278 -17 49 -67 133 -104 177
l-26 30 22 -35z"/>
<path d="M5870 4556 c0 -3 28 -49 63 -103 85 -131 125 -202 148 -266 l20 -52
-6 45 c-9 68 -75 195 -154 294 -39 48 -71 86 -71 82z"/>
<path d="M5793 4475 c19 -39 55 -95 79 -124 57 -72 81 -98 74 -85 -7 14 -176
267 -183 274 -3 3 11 -27 30 -65z"/>
<path d="M5541 4494 c0 -11 3 -14 6 -6 3 7 2 16 -1 19 -3 4 -6 -2 -5 -13z"/>
<path d="M4209 4356 c-8 -57 -11 -102 -7 -100 14 9 38 108 38 156 0 82 -16 53
-31 -56z"/>
<path d="M5401 4424 c0 -11 3 -14 6 -6 3 7 2 16 -1 19 -3 4 -6 -2 -5 -13z"/>
<path d="M4536 4375 c-9 -26 -7 -32 5 -12 6 10 9 21 6 23 -2 3 -7 -2 -11 -11z"/>
<path d="M4491 4237 c-31 -101 -60 -236 -61 -289 -1 -116 -55 -203 -235 -382
-100 -100 -114 -116 -60 -72 144 119 243 225 281 300 31 63 36 85 44 189 10
119 27 211 56 300 9 27 14 50 12 53 -3 2 -19 -42 -37 -99z"/>
<path d="M5779 4213 c94 -142 171 -271 208 -348 45 -94 31 -44 -22 77 -47 107
-129 236 -200 313 l-46 50 60 -92z"/>
<path d="M4804 4184 c-14 -64 -16 -106 -11 -228 4 -93 11 -153 18 -160 9 -8
10 33 5 171 -3 107 -2 203 4 234 16 82 4 69 -16 -17z"/>
<path d="M3945 4130 c-73 -113 -123 -223 -155 -336 -16 -59 -30 -117 -29 -128
0 -12 11 16 24 60 39 132 138 353 203 452 8 12 12 22 8 22 -3 0 -26 -31 -51
-70z"/>
<path d="M6102 4110 c0 -14 2 -19 5 -12 2 6 2 18 0 25 -3 6 -5 1 -5 -13z"/>
<path d="M5726 4010 c4 -8 35 -55 69 -105 69 -100 106 -169 125 -233 20 -65
23 -42 5 29 -24 92 -79 190 -147 261 -33 35 -56 56 -52 48z"/>
<path d="M5151 3974 c0 -11 3 -14 6 -6 3 7 2 16 -1 19 -3 4 -6 -2 -5 -13z"/>
<path d="M5141 3931 c-2 -46 -61 -202 -121 -321 -55 -110 -120 -260 -120 -278
0 -8 102 186 161 306 42 86 93 262 86 297 -4 17 -4 16 -6 -4z"/>
<path d="M5441 3898 c-1 -4 6 -37 16 -75 22 -92 22 -268 -1 -352 -9 -35 -44
-135 -77 -224 -33 -88 -58 -161 -56 -163 2 -2 38 67 80 154 102 209 122 303
97 459 -9 57 -57 218 -59 201z"/>
<path d="M6200 3840 c-7 -33 -11 -63 -8 -66 3 -2 11 23 17 57 7 33 10 63 8 65
-2 3 -10 -23 -17 -56z"/>
<path d="M4953 3737 c-66 -132 -119 -264 -110 -273 2 -3 12 17 22 43 10 27 36
84 58 128 47 95 109 237 104 241 -1 2 -35 -61 -74 -139z"/>
<path d="M5696 3840 c13 -47 83 -177 153 -285 39 -60 71 -105 71 -101 0 21
-83 181 -131 252 -29 43 -64 97 -77 119 -15 26 -21 31 -16 15z"/>
<path d="M4436 3744 c-57 -206 -140 -319 -323 -439 -24 -15 -43 -30 -43 -32 0
-10 134 81 197 134 60 51 132 155 160 233 21 56 47 189 40 196 -2 3 -16 -39
-31 -92z"/>
<path d="M4582 3680 c-7 -166 -55 -259 -223 -435 -144 -150 -193 -218 -254
-349 -54 -115 -84 -235 -90 -356 -4 -86 -3 -89 4 -30 19 144 69 288 138 399
26 42 100 130 168 200 147 153 176 190 214 272 41 85 52 148 48 260 -1 54 -4
71 -5 39z"/>
<path d="M6001 3694 c-2 -24 31 -178 55 -262 14 -48 54 -148 89 -222 94 -200
133 -363 136 -575 1 -87 3 -93 9 -50 12 74 11 320 0 395 -17 106 -48 187 -123
324 -77 141 -109 213 -143 326 -12 41 -23 70 -23 64z"/>
<path d="M3900 3640 c-6 -11 -8 -20 -6 -20 3 0 10 9 16 20 6 11 8 20 6 20 -3
0 -10 -9 -16 -20z"/>
<path d="M5276 3434 c-21 -46 -72 -130 -112 -186 -40 -57 -90 -134 -109 -173
-20 -38 -30 -61 -23 -51 7 11 33 49 57 85 24 36 50 73 59 81 13 13 14 13 7 -5
-15 -37 -18 -256 -5 -327 17 -95 23 -80 8 20 -8 62 -8 102 1 166 12 90 59 242
97 318 29 57 66 149 62 154 -2 1 -21 -35 -42 -82z"/>
<path d="M5118 3398 c-4 -63 -13 -93 -67 -216 -34 -79 -61 -145 -59 -147 1 -2
37 67 78 153 62 131 74 165 75 209 0 28 -5 57 -11 63 -9 9 -13 -7 -16 -62z"/>
<path d="M4632 3340 c-36 -108 -124 -296 -173 -366 -17 -25 -74 -91 -127 -148
-129 -137 -211 -285 -236 -426 -3 -19 7 4 23 52 52 150 95 217 240 371 110
117 163 200 222 344 40 99 93 262 87 269 -2 2 -19 -41 -36 -96z"/>
<path d="M4781 3260 c-3 -161 -51 -275 -182 -430 -156 -185 -257 -357 -331
-564 -21 -60 -37 -110 -35 -113 2 -2 14 25 27 59 59 165 145 300 318 500 112
131 168 220 196 317 21 71 29 193 18 256 l-10 50 -1 -75z"/>
<path d="M5572 3250 c0 -14 2 -19 5 -12 2 6 2 18 0 25 -3 6 -5 1 -5 -13z"/>
<path d="M5496 3183 c-40 -106 -56 -190 -54 -288 l1 -90 8 105 c5 74 18 139
43 220 19 63 33 116 32 118 -2 2 -15 -27 -30 -65z"/>
<path d="M5561 3202 c0 -12 -17 -71 -36 -131 -41 -125 -45 -154 -9 -62 32 84
56 179 51 200 -3 11 -5 9 -6 -7z"/>
<path d="M5634 3052 c-12 -48 -45 -152 -74 -232 -47 -129 -53 -154 -53 -225 0
-79 4 -94 68 -270 15 -40 -50 62 -102 160 -29 55 -53 97 -53 93 0 -3 16 -43
35 -88 40 -92 91 -176 192 -309 39 -51 85 -120 102 -154 18 -34 29 -51 25 -37
-4 14 -28 68 -55 121 -26 52 -51 113 -55 135 -4 21 -27 95 -51 164 -56 164
-58 230 -9 427 33 129 62 291 54 298 -2 2 -13 -36 -24 -83z"/>
<path d="M4835 2973 c-67 -191 -128 -320 -203 -430 -115 -168 -183 -273 -177
-273 2 0 26 33 53 73 28 39 84 117 127 172 98 127 116 164 181 364 55 170 68
231 19 94z"/>
<path d="M4976 3005 c-9 -26 -7 -32 5 -12 6 10 9 21 6 23 -2 3 -7 -2 -11 -11z"/>
<path d="M4956 2955 c-9 -26 -7 -32 5 -12 6 10 9 21 6 23 -2 3 -7 -2 -11 -11z"/>
<path d="M4082 2335 c0 -16 2 -22 5 -12 2 9 2 23 0 30 -3 6 -5 -1 -5 -18z"/>
<path d="M4072 2250 c0 -19 2 -27 5 -17 2 9 2 25 0 35 -3 9 -5 1 -5 -18z"/>
<path d="M5781 1944 c0 -11 3 -14 6 -6 3 7 2 16 -1 19 -3 4 -6 -2 -5 -13z"/>
<path d="M3870 1837 c-50 -111 -63 -178 -57 -307 5 -104 23 -217 33 -208 2 3
-3 39 -11 82 -30 156 -15 300 44 431 16 36 27 65 25 65 -3 0 -18 -28 -34 -63z"/>
<path d="M4081 1814 c0 -11 3 -14 6 -6 3 7 2 16 -1 19 -3 4 -6 -2 -5 -13z"/>
<path d="M3425 5214 c-11 -9 -82 -46 -159 -82 -76 -36 -133 -68 -127 -70 6 -2
46 8 89 22 73 25 140 63 207 120 32 27 23 36 -10 10z"/>
<path d="M8658 4583 c6 -2 18 -2 25 0 6 3 1 5 -13 5 -14 0 -19 -2 -12 -5z"/>
<path d="M2309 4335 c-106 -84 -169 -185 -214 -345 -31 -106 -51 -152 -92
-201 l-27 -34 28 25 c37 33 62 83 106 216 46 142 85 208 182 306 42 43 76 78
75 78 -1 0 -27 -20 -58 -45z"/>
<path d="M2041 3974 c0 -11 3 -14 6 -6 3 7 2 16 -1 19 -3 4 -6 -2 -5 -13z"/>
<path d="M2420 3920 c-19 -11 -31 -19 -27 -20 11 0 67 29 67 35 0 7 -1 7 -40
-15z"/>
<path d="M2440 2820 c-6 -11 -8 -20 -6 -20 3 0 10 9 16 20 6 11 8 20 6 20 -3
0 -10 -9 -16 -20z"/>
</g>
</svg>
